<?xml version="1.0" encoding="UTF-8"?>
<!DOCTYPE svg PUBLIC "-//W3C//DTD SVG 1.1//EN" "http://www.w3.org/Graphics/SVG/1.1/DTD/svg11.dtd">
<!-- Creator: CorelDRAW -->
<svg xmlns="http://www.w3.org/2000/svg" xml:space="preserve" width="167.642mm" height="198.916mm" version="1.1" style="shape-rendering:geometricPrecision; text-rendering:geometricPrecision; image-rendering:optimizeQuality; fill-rule:evenodd; clip-rule:evenodd"
viewBox="0 0 14944.87 17732.77"
 xmlns:xlink="http://www.w3.org/1999/xlink"
 xmlns:xodm="http://www.corel.com/coreldraw/odm/2003">
 <defs>
  <style type="text/css">
   <![CDATA[
    .fil0 {fill:#453017}
   ]]>
  </style>
 </defs>
 <g id="Camada_x0020_1">
  <metadata id="CorelCorpID_0Corel-Layer"/>
  <g id="_105553275683872">
   <path class="fil0" d="M4599.2 4242.46c-468.25,0 -912.6,75.58 -1343.24,219.77 -257.56,86.24 -508.1,194.38 -743.76,326.16l-289.17 176.01c-125.72,84.19 -242.35,163.13 -356.97,257.07 -114.9,94.17 -220.81,183.98 -325.43,288.61 -50.58,50.57 -107.28,101.16 -153.44,153.57 -95.74,108.73 -192.49,217.83 -279.54,334.51 -155.34,208.2 -287.06,423.6 -421.36,648.56 -97.95,164.07 -178.78,344.08 -249.86,522.34 -30.76,77.16 -54.92,143.99 -85.06,221.95 -91.52,236.71 -146.22,471.74 -202.96,718.11 -20.58,89.42 -30.52,165.76 -48.25,258.77 -49.8,261.26 -89.21,703.39 -97.26,972.66 -17.36,580.2 45.68,1220.6 131.87,1738.78 90.81,546.05 228.16,1076.36 402.26,1598.03 34.95,104.76 70.15,192.88 104.7,295.35 180.21,534.46 426.51,1026.64 679.36,1525.61 14.93,29.45 22.55,37.22 37.36,64.98 14.85,27.83 20.6,39.46 36.35,66 99.42,167.61 191.46,338.89 299.79,500.32 54.89,81.79 106.51,159.66 160.05,240 53.78,80.73 110.49,153.52 165.63,234.44 28.32,41.57 52.48,70.89 81.84,113.54l258.91 345.82c91.13,121.89 331.24,429.62 449.53,545.97 73.08,71.89 151.93,170.06 246.43,255.96l97.72 97.66c23.63,23.75 31.23,26.48 55.54,46.8 73.35,61.32 135.88,130.32 212.62,187.44l355.73 249.01c255.5,161.37 605.35,286.49 922.98,286.49 336.57,0 584.57,-52.22 899.22,-142.8 486.16,-139.93 885.09,-356.03 1385.52,-465.9 134.8,-29.6 248.82,-51.24 393.06,-72.13 163.06,-23.61 370.8,-45.96 533.32,-27.61 33.73,3.81 75.9,1.02 110.61,1.04 65.84,0.04 148.51,12.39 212.9,19.68 136.67,15.48 265.96,40.37 395.23,69.95 127.01,29.06 246.12,61.31 365.04,100.14 653.4,213.37 1142.15,499.01 1882.73,499.01 520.31,0 995.12,-229.75 1382.42,-534.14l290.86 -258.05c99.97,-79.75 179.9,-188.79 268.7,-280.22 156.76,-161.4 297.4,-346.48 431.81,-526.47 156.36,-209.4 316.41,-418.61 461.88,-635.95l167.53 -251.14c205.1,-305.53 378.65,-633.15 544.67,-962.52 107.58,-213.43 203.96,-441.72 293.21,-665.06l224.62 -603.41c-40.14,-21.23 -82.91,-37.63 -127.11,-58.96l-248.07 -124.08c-472.58,-233.84 -1018.9,-730.8 -1324.76,-1140.7 -106.83,-143.18 -209.98,-294.06 -297.3,-456.3 -12.65,-23.52 -19.89,-41.15 -30.84,-62.19l-93.29 -185.82c-19.85,-40.22 -37.04,-89.05 -55.44,-130.64 -60.21,-136.04 -101.58,-278.64 -141.72,-425.8 -192.57,-706.21 -186.26,-1615.81 42.63,-2296.42 139.03,-413.41 348.14,-829.48 636.38,-1159.23 244.69,-279.91 380.86,-403.76 669.72,-642.1 31.36,-25.87 63.98,-46.27 96.56,-70.9 53,-40.04 333.99,-244.51 398.76,-261.81 -141.88,-211.87 -385.24,-497.2 -583.88,-672.12l-228.43 -190.23c-420.4,-342.41 -943.1,-576.36 -1461.8,-724.56 -401.18,-114.62 -910.35,-199.4 -1317.11,-199.4 -309.39,0 -626.92,44.34 -882,104.19 -414.48,97.25 -906.4,250.11 -1310.94,410.25 -60.87,24.1 -123.2,44.32 -185.2,66 -127.96,44.74 -241.63,78.06 -372.35,120.74 -186.12,60.77 -397.34,140.42 -598.47,126.62 -345.37,-23.7 -1281.98,-399.41 -1687.81,-535.88 -369.03,-124.1 -833.15,-245.4 -1243.2,-245.4z"/>
   <path class="fil0" d="M7474.03 3740.07c0,226.05 0.22,234.94 18.61,455.88 78.9,0 125.06,9.31 195.38,9.31 264.19,0 584.21,-50.99 832.97,-134.61 123.15,-41.39 236.1,-83.12 345.52,-138.28 56.58,-28.52 107.92,-52.7 161.37,-80.53 356.01,-185.33 674.26,-455.87 955.83,-737.44 603,-603 1039.27,-1351.16 1182.6,-2203.93 36.23,-215.55 27.36,-239.64 38.46,-445.34l-9.25 -465.13c-457,0 -1063.29,215.32 -1451.37,409.36 -416.1,208.04 -849.56,503.85 -1151.44,830.24l-107.31 125.29c-22.25,26.47 -33.52,33.82 -57.04,63.91 -258.3,330.48 -292.47,364.05 -514.06,760.54 -17.08,30.57 -26.7,44.05 -43.33,77.61 -103.95,209.79 -193.4,423.65 -263.43,666.94 -64.28,223.34 -133.49,526.91 -133.49,806.18z"/>
  </g>
 </g>
</svg>
