<?xml version="1.0" encoding="UTF-8"?>
<!DOCTYPE svg PUBLIC "-//W3C//DTD SVG 1.1//EN" "http://www.w3.org/Graphics/SVG/1.1/DTD/svg11.dtd">
<!-- Creator: CorelDRAW -->
<svg xmlns="http://www.w3.org/2000/svg" xml:space="preserve" width="81.8579mm" height="91.2567mm" version="1.1" style="shape-rendering:geometricPrecision; text-rendering:geometricPrecision; image-rendering:optimizeQuality; fill-rule:evenodd; clip-rule:evenodd"
viewBox="0 0 8564.75 9548.14"
 xmlns:xlink="http://www.w3.org/1999/xlink"
 xmlns:xodm="http://www.corel.com/coreldraw/odm/2003">
 <defs>
  <style type="text/css">
   <![CDATA[
    .fil3 {fill:#060606}
    .fil2 {fill:#080808}
    .fil0 {fill:#0A0A0A}
    .fil1 {fill:#0C0C0C}
   ]]>
  </style>
 </defs>
 <g id="Camada_x0020_1">
  <metadata id="CorelCorpID_0Corel-Layer"/>
  <path class="fil0" d="M1674.05 8806.47c-810.03,-0.07 -634.12,-931.25 -670.09,-1711.59l-240.01 -4479.34c-69.55,-1356.35 -268.64,-1263.39 1619.73,-1275.68 -116.14,810.25 -93.04,1351.3 341.94,1878.85 852.33,1033.74 2324.53,993.17 3138.3,-33.16 453.06,-571.4 400.93,-1061.7 312.51,-1844.4 1521.53,5.6 1700.71,-170.57 1638.83,862.41l-256.23 4800.83c-56.11,1096.04 102.73,1801.96 -674.27,1802.21l-2502.1 -2.45c-7.66,-769.18 -1.55,-1541.17 -1.55,-2310.68 0,-329.13 96.64,-1946.16 -101.7,-2108.4 -207.68,169.87 -101.74,749.28 -101.71,1028.13l-1.55 3391.44 -2502.1 1.83zm815.46 -7672.94c-806.5,4.88 -1852.65,-137.54 -1959.62,535.28l223.81 4557.93c158.52,3340.22 -243.76,2778.06 3589.24,2779.81 560.94,0.27 2730.47,99.72 3038.56,-108.5 487.41,-329.44 395.89,-2051.46 426.03,-2720.08 19.93,-441.9 265.73,-4333.93 211.17,-4562.8 -149.25,-626.14 -1125.82,-477.81 -1944.79,-479.24l-176.16 -319.14c460.53,-36.25 1032.4,-18.7 1497.81,-13.29 495.96,5.74 816.63,165.66 933.04,562.99 85.02,290.15 -226.6,5173.81 -262.12,5897.87 -52.45,1069.01 130.05,2078.09 -1054.66,2078.09l-5337.79 0c-1149.85,0 -1094.76,-525.6 -1155.97,-1580.41l-270.77 -5142.33c-87.57,-1935.56 -40.66,-1852.87 2408.53,-1809.69l-166.33 323.51zm1408.79 -859.3l268.78 -78.97 83.08 259.73 58.48 0 97.86 -254.99c219.13,6.66 95.98,-40.96 252.55,75.17 340.61,44.8 506.99,183.97 755.31,325.8 -27.14,283.89 -80.89,53.25 -37.78,338.59 174.62,-42.62 104.18,-58.78 281.56,-87.02 735.64,1045.6 195.59,1089.39 148.54,1129.24 134.4,212.98 33.94,6.66 238.96,190.62 -31.16,250.86 -104.85,464.98 -206.29,670.9 -182.97,371.53 -157.22,278.76 -505.71,200.26 69.49,368.19 215.31,288.57 -231.21,522.72 -219.62,115.16 -363.64,156.55 -632.41,192.32l-190.62 -237.17c-182.45,146.59 -104.68,337.92 -161.9,198.68 -4.31,-10.43 -17.6,26.98 -28.73,38.49 -252.41,-34.42 -473.5,-109.55 -676.49,-212.78 -367.64,-186.97 -252.64,-147.94 -187.38,-500.96 -358.66,80.95 -332.25,171.38 -525.57,-245.15 -85.47,-184.15 -157.63,-396.34 -185.39,-627.32 198.97,-178.86 105.05,18.37 238.7,-190.62l-162.51 -99.97c-216.58,-218.59 168.87,-817.06 307.68,-1032.39 183.81,33.17 106.52,48.18 283.64,88.84 48.89,-284.37 -9.62,-45.59 -36.75,-338.6 234.39,-133.75 429.41,-290.41 753.6,-325.42zm-3865.02 2152.36c40.56,682.07 259.09,6026.09 383.38,6405.09 224.96,685.95 714.37,717.29 1511.53,715.24 1503.67,-3.87 3008,-0.93 4511.74,-0.18 813.33,0.41 1382.75,58.47 1667.84,-623.52 154.82,-370.36 155.57,-1562.91 181.84,-2051.04 75.86,-1409.04 150.3,-2836.25 224.56,-4252.45 43.02,-820.81 201.7,-1507.79 -409.56,-1856.4 -481.82,-274.77 -1430.81,-156.19 -2049.91,-157.13 -530.71,-0.78 -448.04,-143.1 -814.14,-349.96 -1275.54,-720.75 -2201.89,303.58 -2547.35,344.98 -626.18,75.02 -1646.84,-130.83 -2156.33,118.3 -632.99,309.51 -554.41,851.88 -503.58,1707.07z"/>
  <path class="fil0" d="M4090.23 2045.32c-55.1,-277.25 308.66,-320.01 369.68,-111.98 83.75,285.38 -324.93,337.1 -369.68,111.98zm458.44 -427.55c-1023.44,-86.39 -630.3,667.28 -472.13,739.19l410.41 20.39c234.84,-293.14 192.44,-262.81 171.91,-657.55 157.63,-109.93 299.36,-182.96 308.09,-421.93 -230.61,27.7 -314.39,158.72 -418.28,319.9z"/>
  <path class="fil1" d="M5608.87 7962.29c-310.34,16.35 -171.92,-21.14 -286.96,119.8 92.99,62.63 -11.48,56.31 224.67,94.21l1028.28 0.58c284.71,-33.83 177.32,-11.6 213.94,-158.34 -150.26,-75.51 -945,-68.65 -1179.93,-56.25z"/>
  <path class="fil2" d="M2049.69 7256.51c-337.4,18.71 -179.96,-16.29 -278.23,126.59 68.85,43.93 -71.9,87.67 409.84,86.62 341.94,-0.74 891.06,46.78 1064.67,-86.62 -92.06,-187.89 -940.48,-140.77 -1196.28,-126.59z"/>
  <path class="fil2" d="M6570.2 5141.22c-253.5,-36.11 -1115.95,-22.65 -1254.94,81.34 70.65,60.96 -126.57,115.3 292.81,127.73 141.94,4.2 305.38,-4.04 450.59,-3.97 855.43,0.43 619.19,46.36 727.14,-123.77l-99.65 -54.57c-203.9,-63.65 84.32,1.75 -115.95,-26.76z"/>
  <path class="fil0" d="M2500.13 7968.27c-655.3,-0.02 -584.6,-72.93 -729.95,113.83 118.78,81.73 95.98,88.8 346.17,96.13l767.3 0.32c32.11,-0.88 163.89,-7.78 190.21,-13.42 135.57,-29.09 90.57,-34.93 162.21,-83.03 -156.2,-192.04 -173.44,-113.81 -735.93,-113.83z"/>
  <path class="fil2" d="M1776.92 5921.57c120.75,216.98 70.16,130.46 786.76,132 827.7,1.76 607.43,34.33 677.72,-132 -169.65,-115.68 -1253.91,-116.49 -1464.48,0z"/>
  <path class="fil2" d="M2049.2 6550.03c-365.02,20.52 -183.64,-17.91 -273.32,134.06 234.4,136.69 1321.91,102.19 1467.27,0 -88.49,-197.13 -936.49,-148.54 -1193.95,-134.06z"/>
  <path class="fil2" d="M6443.81 7257.94c-390.95,-4.22 -1036.57,-67.52 -1130.98,125.17 141.79,108.96 1232.35,154.73 1474.64,0 -115.97,-168.69 -38.1,-121.87 -343.66,-125.17z"/>
  <path class="fil3" d="M5317.4 5921.57c83.75,198.19 -63.11,131.63 741.27,132 906.99,0.41 629.78,37.95 721.75,-132 -246.67,-137.27 -1332.45,-89.04 -1463.02,0z"/>
  <path class="fil2" d="M6443.98 6551.79c-409.99,-4.05 -1036.41,-71.23 -1128.2,132.3 161.4,115.67 850.08,87.69 1126.87,80.81l340.28 -80.81c-103.34,-175.1 -13.05,-129.09 -338.95,-132.3z"/>
  <path class="fil2" d="M2116.29 5138.38l-344.05 84.17c87.67,65.7 -125.15,124.14 342.71,128.76 405.43,4 1037.12,69.9 1129.35,-128.76 -158.74,-118.78 -852.01,-90.89 -1128.01,-84.17z"/>
 </g>
</svg>
