<?xml version="1.0" encoding="UTF-8"?>
<!DOCTYPE svg PUBLIC "-//W3C//DTD SVG 1.1//EN" "http://www.w3.org/Graphics/SVG/1.1/DTD/svg11.dtd">
<!-- Creator: CorelDRAW -->
<svg xmlns="http://www.w3.org/2000/svg" xml:space="preserve" width="180.622mm" height="105.833mm" version="1.1" style="shape-rendering:geometricPrecision; text-rendering:geometricPrecision; image-rendering:optimizeQuality; fill-rule:evenodd; clip-rule:evenodd"
viewBox="0 0 18062.22 10583.34"
 xmlns:xlink="http://www.w3.org/1999/xlink"
 xmlns:xodm="http://www.corel.com/coreldraw/odm/2003">
 <defs>
  <style type="text/css">
   <![CDATA[
    .fil0 {fill:#453017}
   ]]>
  </style>
 </defs>
 <g id="Camada_x0020_1">
  <metadata id="CorelCorpID_0Corel-Layer"/>
  <path class="fil0" d="M1128.89 7761.11l4868.33 0c111.84,0 993.63,940.7 1137.71,1084.8 384.9,384.94 497.85,473.8 899.59,70.56l996.59 -978.97c375.31,251.32 1098.7,1234.73 1375.83,1234.73 278.49,0 313.08,-118.99 502.71,-308.69 146.98,-147.02 1043.61,-1102.43 1155.35,-1102.43l4868.33 0c724.94,0 340.13,1027.98 45.76,1421.59 -312.07,417.27 -809.69,695.08 -1527.43,695.08l-12841.1 0c-717.74,0 -1215.36,-277.81 -1527.43,-695.08 -300,-401.15 -676.83,-1421.59 45.76,-1421.59zm13052.77 -2116.66l2469.45 0 0 1411.11 -3915.83 0c99.03,-147.9 825.85,-843.5 1049.51,-1067.15 78.45,-78.45 289.05,-343.96 396.87,-343.96zm-12770.55 0l2469.45 0c113.1,0 1401.49,1344.06 1446.38,1411.11l-3915.83 0 0 -1411.11zm9039.87 2654.59l-899.35 -882.06c111.05,-161.92 1345.19,-1354.94 1638.44,-1659.68 157.84,-164.02 189.45,-113.43 557.41,-112.87 446.84,0.68 893.73,0.02 1340.57,0.02l-2637.07 2654.59zm-5485.57 -2645.83l5300.42 -8.76 -2637.07 2654.59 -2663.35 -2645.83zm149.87 -4418.48l670.27 -176.39c136.4,585.45 811.55,1622.77 70.56,1622.77 -324.46,0 -433.21,-576.75 -595.27,-1027.51l-145.56 -418.87zm6985 -211.67c412,197.69 705.76,-39.94 853.1,381.62 153.3,438.59 613.33,1276.43 -41.71,1276.43 -306,0 -342.82,-359.77 -493.92,-740.8 -56.3,-141.96 -101.96,-284.32 -161.47,-438.25 -49.17,-127.17 -140.57,-358.69 -156,-479zm-3633.61 -282.22l635 -35.28c128.34,0 259.1,541.11 352.77,776.11 160.57,402.82 554.95,1199.44 -70.55,1199.44 -293.11,0 -402.24,-463.13 -542.74,-868.36l-282.32 -776.02c-32.18,-91.51 -61.61,-227.51 -92.16,-295.89zm-4727.23 423.33c0,189.15 163.04,352.78 423.34,352.78 128.15,0 123.74,-41.85 246.94,-70.56l367.67 1008.17c158.5,410.75 224.42,619.18 585.17,825.94 708.49,406.06 1587.16,-171.6 1587.16,-916.89 0,-258.04 -219.59,-812.59 -322.6,-1088.51 -34.77,-93.15 -92.18,-266.54 -136.01,-357.87 316.51,0 861.13,-141.11 1199.44,-141.11 270.8,564.35 594.57,1942.63 942.37,2303.19 260.98,270.56 730.1,446.54 1186.4,248.9 322.28,-139.58 658.18,-524.8 658.18,-964.6 0,-254.57 -150.81,-616.12 -232.05,-826.28 -99.38,-257.04 -182.79,-580.42 -297.12,-796.49l871.96 80.54c494.31,61.07 420.67,0.55 569.98,417.8 171.49,479.25 349.64,931.46 520.09,1420.19 436.93,1252.83 2094.92,786.32 2094.92,-295.76 0,-319.77 -187.36,-626.15 -246.95,-881.94 608.5,291.97 698.97,190.73 1678.48,790.97 177.87,109 340.44,220.73 497.79,348.88 311.44,253.64 594.63,513.32 822.25,835.8 192.16,272.24 968.16,1481.57 70.65,1481.57l-15592.78 0c-640.6,0 -401.65,-602.95 -247.17,-952.73 406.91,-921.32 1023.28,-1054.26 1023.28,-1481.43 0,-256.78 -337.27,-652.3 -947.26,111.06 -307.34,384.62 -449.53,471.11 -723.03,1040.86 -146.44,305.05 -269.98,659.58 -269.98,1035.3 0,353.05 344.25,778.93 635,846.66l0 1587.5c-316.94,26.38 -705.56,516.31 -705.56,881.95 0,739.58 128.37,1133.71 568.97,1688.81 57.62,72.59 74.7,104.16 144.02,173.48 168.2,168.2 446.97,361.76 662.05,466.83 228.88,111.82 579.01,246.16 918.02,246.16l13476.1 0c325.82,0 660.8,-123.3 894.32,-234.58 771.9,-367.83 1398.74,-1226.75 1398.74,-2058.48l0 -282.22c0,-365.64 -388.62,-855.57 -705.56,-881.95l0 -1587.5c334.86,-78.01 635,-501.11 635,-952.5 0,-363.07 -269.99,-964.06 -416.25,-1206.52 -122.67,-203.37 -555.43,-794.69 -722.34,-935.71 -91.7,-77.47 -119.84,-84.39 -210.99,-177.07 -523.76,-532.59 -1636.18,-1082.01 -2344,-1360.17 -105.28,-41.37 -184.53,-61.78 -287.7,-100.35 -1252.61,-468.16 -3183,-806.29 -4555.94,-806.29 -1421.93,0 -2126.74,13.17 -3547.97,297.3 -545.92,109.14 -1276.96,293.8 -1784.32,473.46 -171.19,60.62 -382.71,178.93 -382.71,393.41z"/>
 </g>
</svg>
