<?xml version="1.0" encoding="UTF-8"?>
<!DOCTYPE svg PUBLIC "-//W3C//DTD SVG 1.1//EN" "http://www.w3.org/Graphics/SVG/1.1/DTD/svg11.dtd">
<!-- Creator: CorelDRAW -->
<svg xmlns="http://www.w3.org/2000/svg" xml:space="preserve" width="185.183mm" height="188.98mm" version="1.1" style="shape-rendering:geometricPrecision; text-rendering:geometricPrecision; image-rendering:optimizeQuality; fill-rule:evenodd; clip-rule:evenodd"
viewBox="0 0 18484.24 18863.24"
 xmlns:xlink="http://www.w3.org/1999/xlink"
 xmlns:xodm="http://www.corel.com/coreldraw/odm/2003">
 <defs>
  <style type="text/css">
   <![CDATA[
    .fil1 {fill:white}
    .fil2 {fill:white}
    .fil0 {fill:#453017}
   ]]>
  </style>
 </defs>
 <g id="Camada_x0020_1">
  <metadata id="CorelCorpID_0Corel-Layer"/>
  <path class="fil0" d="M1007.68 5193.09l1139.35 888.67c183.22,147.32 391.5,298.21 572.44,444.6l381.51 296.48c62.11,48.17 127.46,96.59 191.18,147.91 37.98,30.58 739.43,580.83 768.31,590.68 23.18,-117.75 201.23,-529.62 256.82,-639.9 110.51,-219.24 220.58,-438.9 358.01,-643.62l135.8 -203.22c64.87,-89.16 122.18,-171.82 191.14,-255.75l470.13 -531.49 293.18 -269.27c372.74,-315.35 773.06,-582.26 1209.93,-801.04 204.49,-102.42 419.43,-187.24 635.96,-265.52 110.28,-39.87 222.38,-69.05 342.72,-104.16 116.29,-33.92 239.72,-62.88 360.05,-86.84 253.6,-50.49 503.29,-85.86 792.99,-100.77 279.62,-14.39 592.12,-15.06 864.22,14.07 557.41,59.69 1099.44,177.84 1609.23,401.75 152.41,66.94 308.17,133.65 451.12,219.2 49.09,29.39 96.09,53.19 142.38,81.06 47.52,28.62 92.89,55.13 138.17,85.27 22.36,14.89 41.83,25.05 66.39,41.48l200.11 138.9c108.25,77.84 211.26,157.46 309.65,245.11 58.94,52.5 123.95,117.97 186.72,160 29.16,-19.52 60.76,-49.03 86.69,-75.11l331.3 -323.61c94.49,-94.64 186.44,-196.19 288.59,-281.57 110.22,-92.13 213.57,-225.19 331.31,-323.6 101.2,-84.6 191.66,-198.48 289.18,-288.69l165.75 -157.85c51.7,-51.7 111.97,-120.15 166,-165.31l84.4 -77.4c78.54,-78.55 161.21,-178.31 247.88,-245.23 117.1,-90.42 215.41,-231.99 332.51,-322.41 52.24,-40.35 288.11,-307.95 334.56,-320.35 -3.96,-47.57 -50.78,-63.06 -79.13,-90.38l-567.99 -479.87c-436.02,-333.65 -894.5,-639.76 -1386.95,-885.98l-591.09 -279.56c-45.09,-17.81 -80.48,-35.28 -124.29,-52.92 -705.91,-284.17 -1434.63,-486.95 -2206.95,-589.9 -108.84,-14.51 -207.16,-22.16 -316.94,-37.49l-397.4 -34.08c-85.94,-4.52 -171.12,2.39 -259.89,-9.78 -17.01,-2.33 -50.48,-4.17 -93.96,-5.6l-594.58 0c-33.65,1.89 -36.56,7.53 -76.04,8.02 -28.03,0.34 -57.43,-1.39 -85.31,-0.56l-492.59 39.05c-97.81,6.56 -213.78,24.52 -308.89,37.83 -106.13,14.84 -205.87,29.73 -307.77,46.65 -911.89,151.48 -1811.58,451.2 -2635.06,862.94 -77.81,38.91 -150.34,75.96 -228.61,118.1l-760.71 456.68c-37.39,24.92 -71.33,45.55 -105.94,71.26 -116.66,86.64 -239.95,164.64 -354.4,254.29l-151.17 118.5c-34.12,28.08 -65.42,48.78 -99.57,77.64 -108.07,91.34 -223.06,179.11 -323.92,277.07l-93.37 83.84c-20.62,16.44 -26.1,19.58 -45.52,39.24l-442.97 435.38c-33.04,32.85 -51.96,60.06 -84.73,92.48 -15.01,14.85 -28.64,26.68 -42.04,42.71l-285.63 330.75c-29.12,33.39 -52.4,62.24 -80.54,96.68l-229.38 294.56c-251.83,336.09 -409.55,593.16 -627.45,952.04 -66.78,109.97 -123.16,226.71 -184.09,339.84 -22,40.87 -45.17,71.72 -60.76,118.11z"/>
  <path class="fil0" d="M1009.34 13657.73c9.37,47.78 134.61,269.26 172.06,339.47l327.23 543.42c243.78,363.42 440.61,652.59 735.21,990.69 76.97,88.34 161.23,190.48 243.06,273.16l84.6 92.61c15.86,15.86 26.98,26.07 42.53,42.22l126.98 134.99c57.95,57.95 110.7,120.5 175.89,170.84 30.27,23.38 58.84,55.95 86.04,83.46l138.38 123.59c106.15,88.88 202.51,183.3 326.88,281.81l587.83 444.63 419.07 274.37c73.69,44.31 141.45,86.57 215.65,131.06l162.98 91.28c20.99,12.13 33.68,20.2 59.49,32.97l225.94 120.78c752.97,376.21 1470.77,643.17 2294.12,818.64 187.17,39.89 395.78,80.78 586.21,107.23 44.92,6.23 100.07,14.57 148.12,21.39l471.67 52.25c47.69,6.33 112.74,9.31 159.9,9.61 40.06,0.26 42.29,6.11 76.81,7.95 195.91,10.45 590.63,21.02 770.78,15.63 57.22,-1.72 63.26,-8.03 161.55,-7.96 251.34,0.17 890.44,-59.07 1121.45,-95.92 372.7,-59.44 507.37,-82.21 877.35,-162.8 98.85,-21.52 183.24,-42.6 277.38,-69.34 93.15,-26.46 176.65,-45.16 265.45,-73.55 290.35,-92.86 479.58,-151.78 771.46,-268.7 122.54,-49.1 369.91,-153.66 482.85,-210.59l458.62 -234.81c143.22,-87.13 277.26,-155.24 436.22,-257.23l309.7 -206.53c131.18,-86.82 555.58,-413.49 683.84,-533.53 31.21,-29.21 57.07,-51.85 88.46,-81.05 23.43,-21.79 75.19,-54.62 87.08,-86.59l-368.96 -290.09c-241.6,-191.52 -508.79,-387.46 -747.3,-578 -64,-51.14 -121.25,-94.99 -186.18,-145.05l-1298.69 -1005.17c-62.56,-49.34 -122.69,-93.98 -186.32,-144.94l-183.09 -138.55c-24.65,9.32 -36.51,22.36 -60.03,38.18 -532.05,358 -1062.67,572.69 -1688.98,730.35 -213.16,53.66 -658.38,126.83 -909.63,145.93 -63.44,4.83 -133.88,3.31 -195.42,12.62 -57.02,8.62 -359.58,10.96 -412.81,10.96 -338.24,0 -812.08,-41.86 -1145,-118.6 -61.54,-14.18 -110.27,-25.16 -169.47,-38.56 -185.96,-42.09 -315.29,-84.38 -495.2,-144.31 -302.18,-100.66 -599.05,-237.3 -876.8,-386.8 -301.92,-162.49 -808.05,-512.69 -1040.67,-739.15 -21.74,-21.16 -35.52,-27.3 -57.98,-49.88 -19.82,-19.92 -33.86,-34.6 -53.67,-54.2 -21.95,-21.71 -36.15,-28.07 -58.09,-49.78l-591.75 -671.84c-123.27,-164.47 -235.77,-328.28 -341.89,-505.66l-149.34 -266.71c-135.26,-251.23 -265.81,-538.85 -354.84,-808.61 -9.16,-27.77 -17.19,-57.63 -27.88,-80.1l-384.27 294c-372.25,295.4 -769.76,592.4 -1146.45,887.55l-955.62 739.48c-131.71,103.36 -452.79,359.36 -572.5,441.47z"/>
  <path class="fil1" d="M12697.63 14271.38l183.09 138.55c63.62,50.97 123.75,95.6 186.32,144.94l1298.69 1005.17c64.93,50.06 122.17,93.92 186.18,145.05 238.51,190.54 505.7,386.48 747.3,578l368.96 290.09c63.12,-32.57 334.2,-319.28 413.94,-398.62 72.63,-72.26 316.84,-357.77 377.27,-431.73 135.41,-165.74 300.19,-381.05 415.82,-554.99 135.72,-204.13 253.38,-382.07 373.63,-597.19 157.39,-281.58 191.58,-360.75 331.21,-639.6 10.81,-21.61 13.76,-31.24 23.36,-53.69l171.73 -398.43c339.62,-848.38 596.33,-1919.84 669.82,-2889.84l21.52 -302.08c6.4,-46.67 3.86,-110.21 8.68,-153.12 5.29,-47.09 0.21,-111.75 0.82,-160.98 0.46,-37.21 5.19,-40.24 7.61,-69.44l0.66 -570.01c-1.68,-56.05 -8.11,-53.94 -7.96,-153.85 0.1,-65.09 -8.3,-104.39 -7.87,-161.64 2.65,-340.44 -110.79,-972.83 -173.37,-1282.85 -11.3,-55.95 -0.79,-50.6 -111.54,-50.27l-3567.37 0.01c-1728.46,0 -3456.91,0 -5185.38,0l0 3505.72 5193.08 0c-2.23,99.87 -77.79,418.25 -104.54,511.86 -91.9,321.67 -140.88,407.16 -253.13,679.15 -38.59,93.49 -166.65,323.77 -216.86,407.24 -41.79,69.49 -77.6,127.32 -122,193.9 -254.73,382.09 -408.51,540.5 -711.42,844.95l-123.04 108.11c-18.14,15.25 -24.11,25.19 -44.05,40.71 -60.83,47.33 -107.86,90.59 -170.68,137.53l-180.5 137.35z"/>
  <path class="fil2" d="M1009.34 13657.73c119.71,-82.11 440.79,-338.11 572.5,-441.47l955.62 -739.48c376.69,-295.16 774.19,-592.16 1146.45,-887.55l384.27 -294c-7.86,-33.45 -20.7,-65.88 -31.8,-99.06 -11.21,-33.53 -20.31,-67.84 -32.73,-105.96 -23.28,-71.45 -38.43,-138.43 -59.67,-210 -19.61,-66.07 -37.62,-146.68 -52.37,-217.29 -85.02,-406.89 -139.32,-777.07 -139.32,-1232.15 0,-97.84 8.16,-167.53 7.6,-262.07 -0.96,-161.17 56.47,-602.47 81.61,-735.11 41.1,-216.83 116.4,-565.08 185.19,-770.22 9.54,-28.44 22.39,-83.4 33.8,-101.93 -28.89,-9.85 -730.33,-560.1 -768.31,-590.68 -63.72,-51.32 -129.07,-99.74 -191.18,-147.91l-381.51 -296.48c-180.94,-146.39 -389.21,-297.28 -572.44,-444.6l-1139.35 -888.67c-21.5,30.15 -37.38,68.6 -54.95,105.2 -103.59,215.81 -210.01,459.47 -297.9,680.62 -15.84,39.88 -32.36,81.7 -47.05,122.45l-207.16 609.56c-157.84,571.09 -227.64,822.1 -320.32,1482.62 -46.59,332.04 -72.96,670.05 -80.3,1009.84l0 395.59c23.2,1093.64 237.92,2189.1 605.4,3148.18 69.68,181.86 177.53,459.03 265.13,636.34l107.96 223.38c4.16,8.48 7.15,15.91 12.65,26.07 6.18,11.4 2.61,5.94 8.36,13.93 8.38,11.63 2.98,5.22 9.83,10.86z"/>
 </g>
</svg>
