<?xml version="1.0" encoding="UTF-8"?>
<!DOCTYPE svg PUBLIC "-//W3C//DTD SVG 1.1//EN" "http://www.w3.org/Graphics/SVG/1.1/DTD/svg11.dtd">
<!-- Creator: CorelDRAW -->
<svg xmlns="http://www.w3.org/2000/svg" xml:space="preserve" width="112.082mm" height="101.76mm" version="1.1" style="shape-rendering:geometricPrecision; text-rendering:geometricPrecision; image-rendering:optimizeQuality; fill-rule:evenodd; clip-rule:evenodd"
viewBox="0 0 8563.89 7775.21"
 xmlns:xlink="http://www.w3.org/1999/xlink"
 xmlns:xodm="http://www.corel.com/coreldraw/odm/2003">
 <defs>
  <style type="text/css">
   <![CDATA[
    .fil0 {fill:#453017}
   ]]>
  </style>
 </defs>
 <g id="Camada_x0020_1">
  <metadata id="CorelCorpID_0Corel-Layer"/>
  <path class="fil0" d="M8484.19 3927.28l-1806.74 -1731.31c0.14,-3.19 0.84,-6.1 0.84,-9.14l0 -1571.34c0,-134.36 -108.85,-243.29 -243.34,-243.29 -134.37,0 -243.29,108.93 -243.29,243.29l0 1114.8 -1730.41 -1658.31c-100.14,-95.97 -258.36,-95.97 -358.67,0l-4022.72 3855.3c-103.42,99.02 -106.75,263.13 -7.81,366.46 99.02,103.33 263.06,106.95 366.39,7.72l3843.54 -3683.35 3843.48 3683.35c50.29,48.14 114.73,72.1 179.26,72.1 68.2,0 136.34,-26.7 187.05,-79.82 99.08,-103.33 95.6,-267.44 -7.59,-366.46z"/>
  <path class="fil0" d="M1592.95 7775.21l1992.53 0c143.15,0 259.09,-116.08 259.09,-259.21l0 -2057.14 874.83 0 0 2057.14c0,143.13 115.94,259.21 259.07,259.21l1992.53 0c143,0 259.08,-116.08 259.08,-259.21l0 -3207.2c0,-143.2 -116.08,-259.21 -259.08,-259.21 -143.2,0 -259.21,116 -259.21,259.21l0 2948.11 -1474.24 0 0 -2057.25c0,-143.07 -115.94,-259.09 -259.08,-259.09l-1392.99 0c-143.14,0 -259.23,116.03 -259.23,259.09l0 2057.25 -1474.07 0 0 -2948.11c0,-143.2 -116.03,-259.21 -259.23,-259.21 -143,0 -259.08,116 -259.08,259.21l0 3207.2c0,143.13 116.08,259.21 259.08,259.21z"/>
 </g>
</svg>
