<?xml version="1.0" encoding="UTF-8"?>
<!DOCTYPE svg PUBLIC "-//W3C//DTD SVG 1.1//EN" "http://www.w3.org/Graphics/SVG/1.1/DTD/svg11.dtd">
<!-- Creator: CorelDRAW -->
<svg xmlns="http://www.w3.org/2000/svg" xml:space="preserve" width="24.1379mm" height="34.9947mm" version="1.1" style="shape-rendering:geometricPrecision; text-rendering:geometricPrecision; image-rendering:optimizeQuality; fill-rule:evenodd; clip-rule:evenodd"
viewBox="0 0 2424.69 3515.27"
 xmlns:xlink="http://www.w3.org/1999/xlink"
 xmlns:xodm="http://www.corel.com/coreldraw/odm/2003">
 <defs>
  <style type="text/css">
   <![CDATA[
    .fil0 {fill:#453017}
   ]]>
  </style>
 </defs>
 <g id="Camada_x0020_1">
  <metadata id="CorelCorpID_0Corel-Layer"/>
  <path class="fil0" d="M1337.76 1500.22l-28.54 36.79c104.07,439.85 121.98,639.63 -140.86,939.51 -94.95,-131.99 -110.98,-339.6 -209.52,-493.31 -177.5,67.23 -371.38,292.85 -424.06,540.93 -77.93,367.03 105.35,494.67 175.8,722.11 -388.82,-158.55 -846.82,-983.53 -455.76,-1537.91 273.04,-387.08 678.29,-633.24 809.16,-1492.81 274.37,135.21 855.43,875.55 1060.3,1279.08 227.33,447.8 267.9,910.34 -27.64,1347.07l-277.43 280.85c140.44,-339.75 260.1,-582.04 100.67,-997.52 -98.62,-257.03 -359.89,-548.86 -582.12,-624.78zm98 1943.68l9.19 19.21c318.44,-72.26 672.22,-417.84 807.37,-643.22 484.19,-807.44 -151.96,-1706.99 -674.24,-2265.11 -131.51,-140.52 -438.33,-480.96 -583.81,-554.77 -105.94,279.85 -24.51,484.67 -348.7,1036.67 -281.52,479.35 -443.66,428.06 -582.81,798 -224.29,596.26 160.35,1577.02 1030.26,1635.25 -197.79,-220.09 -627.11,-566.57 -404.91,-1044.22 95.94,-206.23 123.85,-154.56 221.73,-276.8 97.65,149.26 128.42,330.26 136.91,526.13 426.27,-150.3 448.22,-578.96 439.77,-934.15 403.51,346.27 533.51,817.83 211.72,1339.57l-192.65 269.85c-69.83,85.51 -25.19,-11.85 -69.82,93.6z"/>
  <polygon class="fil0" points="1309.22,1537.01 1337.76,1500.22 1279.77,1449.94 "/>
  <polygon class="fil0" points="1444.96,3463.11 1435.76,3443.9 1370.38,3515.27 "/>
 </g>
</svg>
