<?xml version="1.0" encoding="UTF-8"?>
<!DOCTYPE svg PUBLIC "-//W3C//DTD SVG 1.1//EN" "http://www.w3.org/Graphics/SVG/1.1/DTD/svg11.dtd">
<!-- Creator: CorelDRAW -->
<svg xmlns="http://www.w3.org/2000/svg" xml:space="preserve" width="164.394mm" height="180.622mm" version="1.1" style="shape-rendering:geometricPrecision; text-rendering:geometricPrecision; image-rendering:optimizeQuality; fill-rule:evenodd; clip-rule:evenodd"
viewBox="0 0 16439.44 18062.22"
 xmlns:xlink="http://www.w3.org/1999/xlink"
 xmlns:xodm="http://www.corel.com/coreldraw/odm/2003">
 <defs>
  <style type="text/css">
   <![CDATA[
    .fil0 {fill:#453017}
   ]]>
  </style>
 </defs>
 <g id="Camada_x0020_1">
  <metadata id="CorelCorpID_0Corel-Layer"/>
  <path class="fil0" d="M12805.83 17356.66c-1819.07,0 -2863.3,240.76 -3865.98,-1143.46 -895.78,-1236.65 -1043.78,-3608.08 -149.14,-4917.76 1132.95,-1658.54 2869.39,-747.39 3168.45,-747.39 102.8,0 201.59,-52.2 304.64,-83.41 3055.24,-925.32 3904.78,2348.68 3263.3,4533.29 -369.48,1258.25 -1165.25,2358.73 -2721.27,2358.73zm-423.33 -7690.55zm-1834.45 -811.39l1834.45 811.39zm-1834.45 -811.39c455.57,106.14 840.01,328.54 952.5,811.39 -220.56,-4.91 -515.45,-53.09 -656.62,-225.32 -133.26,-162.58 -264.45,-341.04 -295.88,-586.07zm1834.45 811.39c0,-200.73 146.49,-581.98 226.18,-726.31 376.62,-682.11 976.09,-967.36 1819.93,-1037.58 -138.47,288.59 -120.95,703.61 -626.22,1278.78 -109.94,125.16 -378.36,343.44 -563.09,389.41l-856.8 95.7zm-8396.11 -8960.55l4833.05 0 0 811.38 -4833.05 0 0 -811.38zm-740.84 -70.56l0 105.83 -1728.61 0c-405.4,0 -841.25,256.38 -1050.9,466.04 -226.45,226.44 -466.04,641.75 -466.04,1086.19l0 5291.66c0,225.73 172.32,317.5 388.05,317.5 335.7,0 318.42,-296.99 317.55,-634.95 -2.1,-817.72 -33.27,-4567.3 4.17,-4934.72 61.95,-607.87 480.31,-886.16 1089.4,-886.16l1446.38 0c0,409.2 141.62,811.39 635,811.39l5009.45 0c331.76,0 635,-267.51 635,-599.72l0 -211.67 1516.94 0c583.11,0 1023.06,342.58 1023.06,917.22l0 5997.22c0,155.3 -137.22,290.46 -176.39,458.61 -326.62,-218.71 -412.76,-705.55 -1834.45,-705.55 -415.51,0 -346.87,442.1 -282.71,706.04 38.74,159.39 71.93,282.23 130.9,433.55 70.1,179.9 110.09,231.84 187.09,377.35 -455.42,10.15 -1131.14,403.9 -1455.37,731.86 -439.08,444.14 -612.45,742.64 -852.97,1334.24 -111.75,274.85 -172.38,545 -235.32,858.29 -151.83,755.65 -79.02,2247.71 215.33,2861.17 -749.97,0 -6115.66,46.49 -6364.96,-20.32 -932.47,-249.92 -690.6,-1424.48 -690.6,-2484.4l0.95 -2399.84c7.07,-762.46 -706.5,-518.86 -706.5,-175.44l0 4303.89c0,582.04 450,1146.68 1012.22,1386.67 530.36,226.39 1544.09,130.27 2268.61,130.27 1599.26,0 3198.52,0 4797.78,0 96.29,360.61 697.15,1018.45 1017.39,1275.67 363.43,291.89 1053.14,629.33 1699,629.33l2293.05 0c2034.34,0 3351.39,-2317.69 3351.39,-4233.33 0,-1092.88 -85.4,-1875.79 -614.44,-2772.23 -298.43,-505.66 -735.63,-957.28 -1266.44,-1203 -105.91,-49.02 -177.26,-67.36 -271.06,-116.99 105.97,-158.26 218.15,-268.39 332.13,-443.98 125.14,-192.81 175.37,-295.63 268.65,-507.46 82.29,-186.87 668.23,-1588.56 -1.06,-1588.56 -981.37,0 -1194.95,-10.44 -2081.39,458.61 0,-1411.11 0,-2822.23 0,-4233.34 0,-760.28 64.72,-1393.28 -239.56,-1877.1 -258.56,-411.12 -693.03,-804.01 -1347.94,-804.01l-1693.33 0c0,-417.59 -193.14,-740.83 -599.72,-740.83l-5115.28 0c-250.29,0 -564.45,276.39 -564.45,635z"/>
  <path class="fil0" d="M4409.72 13440.83l-317.5 0c-700.84,0 -1411.11,-741.61 -1411.11,-1446.39 0,-719.21 222.71,-1183.23 834.7,-1528.91 319.39,-180.41 549.97,-164.42 893.91,-164.42 736.51,0 1417.45,746.31 1439.72,1555.39 11.19,406.57 -213.16,869.22 -424.75,1082.36 -235.63,237.36 -561.74,501.97 -1014.97,501.97zm-2469.44 -1658.05c0,1338.89 979.34,2398.88 2257.77,2398.88 1352.22,0 2363.61,-1075.41 2363.61,-2187.22 0,-1006.59 -426.74,-1767.18 -1316.51,-2211.26 -865.83,-432.12 -1953.51,-220.74 -2608.33,438.36 -195.41,196.7 -348.51,386.99 -473.75,655.14 -104.14,222.96 -222.79,598.69 -222.79,906.1z"/>
  <path class="fil0" d="M2257.78 4515.56c0,242.26 173.66,388.05 423.33,388.05l7937.5 0c495.87,0 494.36,-740.83 0,-740.83l-7972.78 0c-188.3,0 -388.05,165.92 -388.05,352.78z"/>
  <path class="fil0" d="M2257.78 6350c0,202.42 151.72,388.05 352.77,388.05l6491.11 0c383.06,0 605.56,-740.83 -176.38,-740.83l-6138.34 0c-254.55,0 -529.16,98.88 -529.16,352.78z"/>
  <path class="fil0" d="M2257.78 8219.72c0,177.37 175.41,352.78 352.77,352.78l5503.34 0c426.15,0 426.15,-705.56 0,-705.56l-5573.89 0c-107.6,0 -282.22,162.25 -282.22,352.78z"/>
  <path class="fil0" d="M3986.39 11853.33c-200.58,-134.31 -145.86,-246.94 -458.61,-246.94 -239.32,0 -583.57,355.38 -5.25,816.64 311.87,248.74 249.25,312.25 534.41,312.25 233.92,0 626.86,-573.26 854.8,-803.26 101.78,-102.71 340.48,-332.14 383.88,-465.65 117.71,-362.06 -369.97,-675.89 -675.06,-284.15l-634.17 671.11z"/>
  <path class="fil0" d="M-0 8925.28c0,527.62 705.55,527.62 705.55,0 0,-426.16 -705.55,-426.16 -705.55,0z"/>
 </g>
</svg>
