<?xml version="1.0" encoding="UTF-8"?>
<!DOCTYPE svg PUBLIC "-//W3C//DTD SVG 1.1//EN" "http://www.w3.org/Graphics/SVG/1.1/DTD/svg11.dtd">
<!-- Creator: CorelDRAW -->
<svg xmlns="http://www.w3.org/2000/svg" xml:space="preserve" width="50mm" height="50mm" version="1.1" style="shape-rendering:geometricPrecision; text-rendering:geometricPrecision; image-rendering:optimizeQuality; fill-rule:evenodd; clip-rule:evenodd"
viewBox="0 0 5000 5000"
 xmlns:xlink="http://www.w3.org/1999/xlink"
 xmlns:xodm="http://www.corel.com/coreldraw/odm/2003">
 <defs>
  <style type="text/css">
   <![CDATA[
    .str0 {stroke:#2B3467;stroke-width:7.62;stroke-miterlimit:22.9256}
    .fil2 {fill:none}
    .fil0 {fill:white}
    .fil3 {fill:#453017}
    .fil6 {fill:#9A927E}
    .fil7 {fill:#9B9689}
    .fil5 {fill:#A49B8C}
    .fil8 {fill:#A79D93}
    .fil9 {fill:#ABA699}
    .fil4 {fill:#B4A898}
    .fil1 {fill:#FFB100}
   ]]>
  </style>
   <clipPath id="id0">
    <path d="M810 0l3380 0c445.5,0 810,364.5 810,810l0 3380c0,445.5 -364.5,810 -810,810l-3380 0c-445.5,0 -810,-364.5 -810,-810l0 -3380c0,-445.5 364.5,-810 810,-810z"/>
   </clipPath>
 </defs>
 <g id="Camada_x0020_1">
  <metadata id="CorelCorpID_0Corel-Layer"/>
  <path class="fil0" d="M810 0l3380 0c445.5,0 810,364.5 810,810l0 3380c0,445.5 -364.5,810 -810,810l-3380 0c-445.5,0 -810,-364.5 -810,-810l0 -3380c0,-445.5 364.5,-810 810,-810z"/>
  <g style="clip-path:url(#id0)">
   <g id="_105553213263072">
    <path id="_1" class="fil1" d="M702.47 -159.06l3595.06 0c473.85,0 861.53,387.68 861.53,861.53l0 3595.06c0,473.85 -387.68,861.53 -861.53,861.53l-3595.06 0c-473.85,0 -861.53,-387.68 -861.53,-861.53l0 -3595.06c0,-473.85 387.68,-861.53 861.53,-861.53zm260.19 384.9l3074.68 0c405.26,0 736.82,331.56 736.82,736.82l0 3074.68c0,405.26 -331.56,736.82 -736.82,736.82l-3074.68 0c-405.26,0 -736.82,-331.56 -736.82,-736.82l0 -3074.68c0,-405.26 331.56,-736.82 736.82,-736.82z"/>
   </g>
  </g>
  <path class="fil2" d="M810 0l3380 0c445.5,0 810,364.5 810,810l0 3380c0,445.5 -364.5,810 -810,810l-3380 0c-445.5,0 -810,-364.5 -810,-810l0 -3380c0,-445.5 364.5,-810 810,-810z"/>
  <path class="fil3" d="M3168.17 2378.06c233.77,192.96 191.64,673.99 81.97,809.02 -136.32,167.86 -432.6,295.82 -740.19,325.55 -336.81,32.55 -619,-58.65 -824.39,-213.78 -181.82,-137.33 -237.1,-350.56 -156.15,-568.44 27.36,-73.67 59.19,-124.67 119.38,-157.6 42.22,13.22 82.42,53.66 150.52,76.14 304.14,100.37 888.81,36.3 1211.67,-25.34 61.18,-11.68 132.75,-35.17 186.86,-42.97 14.45,-31.99 11.85,-5.07 4.64,-52.67 -3.1,-51.33 -31.2,-96.37 -43.68,-141.5 -16.76,-19.85 -8.28,26.18 -15.28,-25.94 45.15,4.36 11.94,-2.56 24.65,17.53zm672.41 -906.85c24.29,-98.62 3.23,-139.56 -5.76,-226.15 -14.12,-18.56 2.34,14.86 -14.08,-21.62 -8.09,-17.97 -2.05,-5.59 -6.72,-28.4 -59.1,-114.92 -120.69,-186.98 -238.11,-241.38 -163.63,-75.8 -258.55,-45.06 -430.09,-25.29 -36.42,-46.19 -40.37,-98.12 -125.55,-187.8 -341.98,-360.01 -1059.49,-323.69 -1349.36,48.06 -52.01,66.71 -77.96,122.18 -127.47,196.06 -345.57,22.77 -654.06,187.28 -684.54,519.76 -10.81,117.94 32.18,205.26 59.52,261.71 39.12,61.27 90.23,111.53 156.49,147.91l0.12 -0.18c209.19,108.91 329.23,59.73 447.25,81.71l13.16 117.09c15.56,26.08 13.73,40.85 8.9,76.84l-51.34 9.96c-215.7,19.36 -480.56,342.01 -494.7,660.62 -4.08,91.99 18.58,272.1 60.59,337.07l378.07 16.93c64.6,1.68 60.47,3.09 94.29,36.58 80.94,80.17 177.99,160.79 305.96,215.97 33.03,10.7 22.68,3.26 40.83,25.39 135.32,26.65 161.01,72.19 402.61,90.08 154.05,11.4 302.99,-4.06 445.2,-38.73 248.89,-60.67 524.9,-199.58 620.5,-379.99 136,-4.28 483.37,32.7 541.51,1.63 -7.67,-109.14 106.19,-408.48 -125.99,-708.27 -102.15,-131.89 -317.6,-301.52 -550.33,-343.98 10.97,-422.83 20.28,-241.25 296.5,-326.15 156.92,-48.24 291.94,-150.61 332.54,-315.43zm-807.31 -542.91c32.45,46.48 37.65,164.93 22.13,223.98 -17.86,67.92 -60.06,118.47 -107.93,150.41l0.39 10.21c70.69,-13.76 120.29,-56.4 148.31,-100.5 44.18,-69.54 39.72,-101.64 50.79,-193.01 34.59,-16.69 64.29,-20.45 101.25,-16.01 59.1,-40.64 402.89,-26 478.38,254.48 65.9,244.83 -79.43,401.92 -260.76,455.84 -184.09,54.74 -476.83,-4.91 -675.42,-21.24 -379.46,-31.2 -386.85,1.6 -686.39,68.36l-24.51 16.79 -0.09 11.22c92.44,-12.74 164.64,-34.25 266.7,-42.7 96.87,-8.02 192.72,-8.63 292.06,-3.81 140.41,6.82 401.13,36.1 520.54,76.21l-30.27 214.11c-100.13,77.89 -564.81,113.64 -730.39,122 -136.32,6.88 -276.37,8.04 -415.9,3.45l-337.07 -23.21c-54.87,-15.8 -12.67,5.77 -37.61,-23.01 -13.85,-16.94 -40.5,-177.25 -53.95,-218.46 -19.67,-60.31 -64.91,-157.81 -107.08,-184.5 12.85,39.03 47.78,167.48 51.17,201.13 -140.98,16.47 -274.67,-3.93 -371.98,-74.4 -502.45,-444.6 298.41,-948.12 934.45,-696.96l13.66 -4.13c-180.1,-114.18 -217.22,-119.75 -432.45,-154.81 134.49,-502.09 1253.24,-551.64 1391.97,-51.44z"/>
  <path class="fil3" d="M2550.36 3651.2c7.93,52 169.18,507.09 190.86,535.27 159.42,-20.65 360.12,-122.71 472.49,-196.14 85.05,-55.58 310.82,-248.09 339.94,-330.9l-324.2 -215.21c-34.03,-10.86 -82.11,28.21 -120.61,46.29 -180.18,84.59 -344.93,129.11 -558.48,160.69z"/>
  <path class="fil3" d="M2151.49 4184.27c35.38,-7.93 10.35,3.47 38.55,-15.86l128.69 -479.06c-10.78,-34.41 4.05,-22.54 -52.95,-30.59 -8.61,-1.22 -20.9,-1.85 -29.23,-3.95 -22.41,-5.66 -7.03,-1.34 -19.35,-10.74 -126.51,12.07 -360.76,-75.22 -456.34,-127.41 -64.86,-35.41 -68,-9.85 -210.22,44.91 -74.69,28.76 -148.37,61.88 -218.05,84.52 60.77,179.12 555.33,517.34 818.9,538.18z"/>
  <path class="fil1" d="M1607.48 2111.87c24.94,28.78 -17.26,7.21 37.61,23.01l337.07 23.21c139.53,4.59 279.58,3.43 415.9,-3.45 165.58,-8.36 630.26,-44.11 730.39,-122l30.27 -214.11 -272.61 95.97c-293.48,74.55 -554.81,137.4 -863.3,168.85 -226.93,23.14 -171.81,30.23 -415.33,28.52zm33.82 -1132.13c28.66,7.06 165.05,32 199.14,38.35 87.04,-274.04 605.66,-377.47 924.82,-257.13 250.58,94.48 226.24,119.29 268.01,167.34 -58.79,-241.68 -375.28,-365.3 -707.13,-351.61 -388.84,16.97 -636.59,202.38 -684.84,403.05zm-552.94 535.55c-1.9,-135.13 60.07,-204.7 125.89,-262.3 114.32,-100.03 218.06,-142.11 279.93,-162.61 -443.54,58.59 -730.48,483.1 -368.54,745.26 97.31,70.47 231,90.87 371.98,74.4 -82.16,-18.85 -404.79,-76.02 -409.26,-394.75zm315.15 31.09l204.81 -43.15c221.41,-42.99 458.84,-59.87 688.03,-60.06 145.88,-0.13 311.6,-20.53 407.53,-86.98 99.79,-69.14 176.34,-195.2 108.14,-353.51 -66.12,91.05 -23.78,319.85 -626.75,336.19 -210.18,5.69 -732.36,40.64 -781.76,207.51zm700.51 214.44c299.54,-66.76 306.93,-99.56 686.39,-68.36 198.59,16.33 491.33,75.98 675.42,21.24 181.33,-53.92 326.66,-211.01 260.76,-455.84 -75.49,-280.48 -419.28,-295.12 -478.38,-254.48 117.03,27.52 171.29,-22.51 262.05,55.14 144.07,123.25 175.97,526.59 -256.68,553.38 -150.68,9.34 -362.52,-34.45 -620.24,-1.04 -96.43,12.51 -459.19,60.05 -529.32,149.96z"/>
  <path class="fil3" d="M2174.09 3206.35l446.5 -0.16c-6.97,37.95 -43.32,73.27 -83.11,78.04 -29.99,3.6 -93.92,-16.97 -140.17,-16.97 -57.15,0.01 -196.42,61.59 -223.22,-60.91zm-28.42 9.64c35.23,164.49 468.79,163.81 499.19,2.29l4.73 -33.86 -503.96 1.23 0.04 30.34z"/>
  <path class="fil3" d="M2684.87 2931.14c16.06,114.05 160.06,104.39 146.89,-39.4 -12.11,-132.3 -167.23,-105.12 -146.89,39.4z"/>
  <path class="fil4" d="M1493 2199.49l51.34 -9.96c4.83,-35.99 6.66,-50.76 -8.9,-76.84l2.22 59.87c-28.11,18.53 8.35,-5.32 -21.01,10.66 -19.64,10.69 -12.75,3.39 -23.65,16.27z"/>
  <path class="fil5" d="M865.41 3240.83c-2.96,-8.7 -6.36,-21.54 -10.46,-30.84 -17.09,-38.75 -6.71,-14.07 -17.15,-27.59 2.04,9.78 2.84,23.67 8.06,34.89 17.96,38.65 0.71,7.91 19.55,23.54z"/>
  <path class="fil6" d="M3158.8 2386.47l9.37 -8.41c-12.71,-20.09 20.5,-13.17 -24.65,-17.53 7,52.12 -1.48,6.09 15.28,25.94z"/>
  <path class="fil7" d="M3197.84 2580.64l25.36 -21.45 -20.72 -31.22c7.21,47.6 9.81,20.68 -4.64,52.67z"/>
  <path class="fil8" d="M3834.82 1245.06c-4.79,-22.11 4.18,-3.13 -6.93,-27.92 -9.07,-20.25 -7.59,-13.12 -13.87,-22.1 4.67,22.81 -1.37,10.43 6.72,28.4 16.42,36.48 -0.04,3.06 14.08,21.62z"/>
  <path class="fil8" d="M2073.75 1134.55l-13.66 4.13c10.83,10.92 -1.85,11.87 32.5,20.24l-18.84 -24.37z"/>
  <path class="fil3" d="M1878.04 3492.05c-18.15,-22.13 -7.8,-14.69 -40.83,-25.39 6.53,5.39 8.1,8.26 19.53,15.07 7.85,4.69 13.9,6.87 21.3,10.32z"/>
  <path class="fil9" d="M2947.86 1312.9l-0.39 -10.21 -13.6 15.85c1.12,-0.15 5.88,-1.27 7,-1.49 1.27,-0.24 4.49,-3.11 6.99,-4.15z"/>
  <path class="fil3" d="M2740.14 3027.04c61.15,0 112.33,-48.82 112.33,-114.12 0,-117.87 -165.19,-153.26 -213.95,-44.56 -3.13,6.99 -5.23,13.05 -7.22,21.31 -3.94,16.39 -4.24,32.3 -0.39,48.67 5.16,21.87 14.7,39.67 30.31,55.28 17.26,17.27 45.12,33.42 78.92,33.42z"/>
  <path class="fil3 str0" d="M1971.89 3004.72c3.56,0 19.7,-16.3 24.51,-19.8 60.19,-43.84 138.27,-44.73 198.37,-0.77 9.33,6.83 21.57,20.57 25.57,20.57 8.16,0 20.59,-9.46 18.96,-21.02 -1.45,-10.27 -21.96,-49.51 -27.6,-59.7 -63.02,-113.91 -168.15,-113.91 -231.17,0 -5.64,10.19 -26.15,49.43 -27.6,59.7 -1.63,11.56 10.8,21.02 18.96,21.02z"/>
  <path class="fil1" d="M3858.1 1608.6c148.14,217.35 252,494.89 286.22,845.44 113.87,1166.64 -789.45,2005.89 -1724.15,1987.78 -934.71,-18.11 -1640.42,-742.02 -1659.16,-1799.98 -4.96,-279.94 58.23,-534.12 167.28,-756.25l119.13 90.49c-92.9,197.69 -146.35,422.26 -141.99,668.71 17.14,967.89 662.78,1630.17 1517.91,1646.74 855.13,16.57 1681.55,-751.23 1577.37,-1818.56 -29.89,-306.26 -117.91,-551.58 -243.8,-746.23l101.19 -118.14z"/>
 </g>
</svg>
