<?xml version="1.0" encoding="UTF-8"?>
<!DOCTYPE svg PUBLIC "-//W3C//DTD SVG 1.1//EN" "http://www.w3.org/Graphics/SVG/1.1/DTD/svg11.dtd">
<!-- Creator: CorelDRAW -->
<svg xmlns="http://www.w3.org/2000/svg" xml:space="preserve" width="86.6988mm" height="86.6988mm" version="1.1" style="shape-rendering:geometricPrecision; text-rendering:geometricPrecision; image-rendering:optimizeQuality; fill-rule:evenodd; clip-rule:evenodd"
viewBox="0 0 8669.88 8669.88"
 xmlns:xlink="http://www.w3.org/1999/xlink"
 xmlns:xodm="http://www.corel.com/coreldraw/odm/2003">
 <defs>
  <style type="text/css">
   <![CDATA[
    .str0 {stroke:#2B3467;stroke-width:7.62;stroke-miterlimit:22.9256}
    .fil2 {fill:none}
    .fil0 {fill:white}
    .fil3 {fill:#453017}
    .fil6 {fill:#9A927E}
    .fil7 {fill:#9B9689}
    .fil5 {fill:#A49B8C}
    .fil8 {fill:#A79D93}
    .fil9 {fill:#ABA699}
    .fil4 {fill:#B4A898}
    .fil1 {fill:#FFB100}
   ]]>
  </style>
   <clipPath id="id0">
    <path d="M1404.52 0l5860.84 0c772.5,0 1404.52,632.03 1404.52,1404.51l0 5860.86c0,772.48 -632.02,1404.51 -1404.52,1404.51l-5860.84 0c-772.5,0 -1404.52,-632.03 -1404.52,-1404.51l0 -5860.86c0,-772.48 632.02,-1404.51 1404.52,-1404.51z"/>
   </clipPath>
 </defs>
 <g id="Camada_x0020_1">
  <metadata id="CorelCorpID_0Corel-Layer"/>
  <path class="fil0" d="M1404.52 0l5860.84 0c772.5,0 1404.52,632.03 1404.52,1404.51l0 5860.86c0,772.48 -632.02,1404.51 -1404.52,1404.51l-5860.84 0c-772.5,0 -1404.52,-632.03 -1404.52,-1404.51l0 -5860.86c0,-772.48 632.02,-1404.51 1404.52,-1404.51z"/>
  <g style="clip-path:url(#id0)">
   <g id="_105553213442976">
    <path id="_1" class="fil1" d="M1218.07 -275.8l6233.74 0c821.64,0 1493.87,672.23 1493.87,1493.87l0 6233.74c0,821.64 -672.23,1493.87 -1493.87,1493.87l-6233.74 0c-821.64,0 -1493.87,-672.23 -1493.87,-1493.87l0 -6233.74c0,-821.64 672.23,-1493.87 1493.87,-1493.87zm451.16 667.41l5331.42 0c702.71,0 1277.63,574.91 1277.63,1277.62l0 5331.42c0,702.71 -574.92,1277.62 -1277.63,1277.62l-5331.42 0c-702.71,0 -1277.63,-574.91 -1277.63,-1277.62l0 -5331.42c0,-702.71 574.92,-1277.62 1277.63,-1277.62z"/>
   </g>
  </g>
  <path class="fil2" d="M1404.52 0l5860.84 0c772.5,0 1404.52,632.03 1404.52,1404.51l0 5860.86c0,772.48 -632.02,1404.51 -1404.52,1404.51l-5860.84 0c-772.5,0 -1404.52,-632.03 -1404.52,-1404.51l0 -5860.86c0,-772.48 632.02,-1404.51 1404.52,-1404.51z"/>
  <path class="fil3" d="M5493.53 4123.5c405.34,334.59 332.3,1168.68 142.14,1402.83 -236.39,291.05 -750.13,512.94 -1283.47,564.48 -584.03,56.45 -1073.34,-101.7 -1429.48,-370.68 -315.27,-238.13 -411.12,-607.87 -270.76,-985.67 47.45,-127.73 102.63,-216.17 207,-273.27 73.21,22.92 142.91,93.05 261.01,132.02 527.36,174.05 1541.17,62.95 2101,-43.94 106.09,-20.25 230.19,-60.97 324.01,-74.51 25.05,-55.47 20.55,-8.78 8.05,-91.32 -5.38,-89 -54.1,-167.1 -75.75,-245.36 -29.06,-34.42 -14.36,45.39 -26.49,-44.97 78.29,7.55 20.69,-4.44 42.74,30.39zm1165.93 -1572.46c42.12,-171 5.61,-241.98 -9.97,-392.13 -24.49,-32.19 4.05,25.77 -24.42,-37.49 -14.02,-31.16 -3.55,-9.7 -11.65,-49.25 -102.47,-199.27 -209.27,-324.22 -412.88,-418.54 -283.72,-131.44 -448.32,-78.14 -745.76,-43.85 -63.16,-80.09 -70,-170.14 -217.71,-325.64 -592.97,-624.25 -1837.13,-561.28 -2339.75,83.33 -90.18,115.67 -135.17,211.85 -221.04,339.96 -599.21,39.48 -1134.11,324.74 -1186.96,901.25 -18.74,204.5 55.8,355.91 103.2,453.81 67.83,106.23 156.46,193.38 271.35,256.47l0.21 -0.31c362.73,188.83 570.87,103.57 775.52,141.67l22.81 203.03c26.99,45.23 23.81,70.84 15.44,133.23l-89.02 17.28c-374.01,33.57 -833.28,593.03 -857.79,1145.51 -7.08,159.49 32.21,471.81 105.06,584.46l655.56 29.35c112.01,2.92 104.86,5.36 163.5,63.44 140.34,139.02 308.62,278.8 530.52,374.49 57.28,18.55 39.32,5.64 70.8,44.02 234.64,46.2 279.19,125.18 698.1,156.19 267.12,19.77 525.39,-7.04 771.98,-67.14 431.56,-105.2 910.16,-346.09 1075.93,-658.91 235.83,-7.42 838.16,56.71 938.96,2.83 -13.3,-189.24 184.13,-708.3 -218.47,-1228.12 -177.11,-228.69 -550.69,-522.83 -954.24,-596.46 19.02,-733.17 35.15,-418.31 514.11,-565.53 272.1,-83.64 506.22,-261.16 576.61,-546.95zm-1399.84 -941.39c56.27,80.6 65.28,285.98 38.36,388.37 -30.96,117.77 -104.14,205.43 -187.14,260.81l0.68 17.7c122.58,-23.85 208.58,-97.78 257.17,-174.26 76.6,-120.57 68.87,-176.24 88.07,-334.68 59.96,-28.93 111.46,-35.46 175.56,-27.75 102.47,-70.48 698.6,-45.08 829.5,441.26 114.26,424.52 -137.73,696.92 -452.15,790.42 -319.21,94.91 -826.81,-8.52 -1171.16,-36.83 -657.98,-54.11 -670.8,2.77 -1190.2,118.52l-42.49 29.13 -0.15 19.46c160.29,-22.11 285.48,-59.4 462.45,-74.05 167.97,-13.9 334.17,-14.97 506.42,-6.61 243.46,11.83 695.54,62.59 902.6,132.15l-52.48 371.26c-173.63,135.07 -979.37,197.06 -1266.48,211.55 -236.38,11.93 -479.22,13.94 -721.16,5.98l-584.47 -40.24c-95.14,-27.4 -21.96,10 -65.22,-39.91 -24.01,-29.36 -70.23,-307.35 -93.54,-378.8 -34.11,-104.58 -112.56,-273.64 -185.67,-319.91 22.28,67.67 82.85,290.4 88.71,348.74 -244.45,28.56 -476.27,-6.81 -644.99,-129.01 -871.23,-770.92 517.43,-1644.02 1620.3,-1208.5l23.69 -7.16c-312.28,-198 -376.65,-207.64 -749.86,-268.44 233.22,-870.61 2173.1,-956.53 2413.65,-89.2z"/>
  <path class="fil3" d="M4422.26 6331.08c13.76,90.18 293.35,879.29 330.95,928.15 276.44,-35.8 624.45,-212.77 819.29,-340.1 147.47,-96.37 538.94,-430.18 589.44,-573.77l-562.15 -373.17c-59.01,-18.83 -142.37,48.91 -209.14,80.26 -312.42,146.68 -598.1,223.88 -968.39,278.63z"/>
  <path class="fil3" d="M3730.63 7255.41c61.34,-13.75 17.94,6.04 66.84,-27.5l223.16 -830.67c-18.69,-59.67 7.02,-39.08 -91.83,-53.04 -14.92,-2.11 -36.23,-3.21 -50.67,-6.85 -38.86,-9.81 -12.19,-2.32 -33.57,-18.62 -219.35,20.93 -625.54,-130.44 -791.26,-220.92 -112.48,-61.41 -117.92,-17.08 -364.53,77.87 -129.5,49.86 -257.26,107.29 -378.09,146.55 105.37,310.59 962.93,897.05 1419.95,933.18z"/>
  <path class="fil1" d="M2787.33 3661.93c43.26,49.91 -29.92,12.51 65.22,39.91l584.47 40.24c241.94,7.96 484.78,5.95 721.16,-5.98 287.11,-14.49 1092.85,-76.48 1266.48,-211.55l52.48 -371.26 -472.69 166.4c-508.88,129.28 -962.03,238.26 -1496.95,292.79 -393.48,40.12 -297.91,52.42 -720.17,49.45zm58.64 -1963.08c49.71,12.25 286.2,55.48 345.31,66.5 150.92,-475.17 1050.19,-654.53 1603.61,-445.86 434.5,163.83 392.3,206.84 464.73,290.16 -101.95,-419.06 -650.74,-633.41 -1226.15,-609.67 -674.23,29.42 -1103.82,350.92 -1187.5,698.87zm-958.79 928.63c-3.28,-234.32 104.16,-354.94 218.3,-454.82 198.23,-173.45 378.12,-246.42 485.39,-281.96 -769.08,101.6 -1266.64,837.68 -639.03,1292.25 168.72,122.2 400.54,157.57 644.99,129.01 -142.46,-32.68 -701.88,-131.82 -709.65,-684.48zm546.47 53.9l355.14 -74.81c383.92,-74.55 795.62,-103.82 1193.02,-104.15 252.96,-0.22 540.31,-35.59 706.65,-150.82 173.04,-119.88 305.78,-338.46 187.52,-612.98 -114.66,157.89 -41.24,554.62 -1086.77,582.95 -364.45,9.87 -1269.9,70.47 -1355.56,359.81zm1214.66 371.83c519.4,-115.75 532.22,-172.63 1190.2,-118.52 344.35,28.31 851.95,131.74 1171.16,36.83 314.42,-93.5 566.41,-365.9 452.15,-790.42 -130.9,-486.34 -727.03,-511.74 -829.5,-441.26 202.92,47.72 297.02,-39.02 454.38,95.61 249.82,213.71 305.13,913.1 -445.07,959.55 -261.28,16.19 -628.6,-59.74 -1075.48,-1.8 -167.2,21.68 -796.22,104.13 -917.84,260.01z"/>
  <path class="fil3" d="M3769.82 5559.73l774.22 -0.28c-12.09,65.81 -75.12,127.05 -144.11,135.33 -52,6.23 -162.86,-29.43 -243.05,-29.43 -99.11,0.02 -340.59,106.8 -387.06,-105.62zm-49.28 16.72c61.08,285.23 812.87,284.03 865.58,3.96l8.21 -58.7 -873.86 2.12 0.07 52.62z"/>
  <path class="fil3" d="M4655.5 5082.53c27.84,197.76 277.54,181 254.71,-68.33 -21.01,-229.4 -289.98,-182.26 -254.71,68.33z"/>
  <path class="fil4" d="M2588.83 3813.86l89.02 -17.28c8.37,-62.39 11.55,-88 -15.44,-133.23l3.85 103.82c-48.73,32.12 14.49,-9.23 -36.43,18.49 -34.05,18.53 -22.11,5.87 -41,28.2z"/>
  <path class="fil5" d="M1500.61 5619.51c-5.13,-15.07 -11.03,-37.35 -18.14,-53.46 -29.65,-67.19 -11.63,-24.41 -29.74,-47.85 3.54,16.97 4.93,41.04 13.97,60.5 31.15,67.02 1.23,13.73 33.91,40.81z"/>
  <path class="fil6" d="M5477.28 4138.08l16.25 -14.58c-22.05,-34.83 35.55,-22.84 -42.74,-30.39 12.13,90.36 -2.57,10.55 26.49,44.97z"/>
  <path class="fil7" d="M5544.98 4474.76l43.96 -37.19 -35.91 -54.13c12.5,82.54 17,35.85 -8.05,91.32z"/>
  <path class="fil8" d="M6649.49 2158.91c-8.32,-38.35 7.24,-5.44 -12.02,-48.42 -15.73,-35.11 -13.16,-22.75 -24.05,-38.32 8.1,39.55 -2.37,18.09 11.65,49.25 28.47,63.26 -0.07,5.3 24.42,37.49z"/>
  <path class="fil8" d="M3595.83 1967.29l-23.69 7.16c18.79,18.93 -3.19,20.57 56.36,35.09l-32.67 -42.25z"/>
  <path class="fil3" d="M3256.48 6055.13c-31.48,-38.38 -13.52,-25.47 -70.8,-44.02 11.33,9.33 14.04,14.32 33.86,26.13 13.62,8.13 24.11,11.9 36.94,17.89z"/>
  <path class="fil9" d="M5111.52 2276.53l-0.68 -17.7 -23.58 27.49c1.95,-0.26 10.2,-2.21 12.14,-2.58 2.21,-0.42 7.78,-5.4 12.12,-7.21z"/>
  <path class="fil3" d="M4751.33 5248.81c106.04,0 194.79,-84.65 194.79,-197.88 0,-204.38 -286.44,-265.75 -370.99,-77.26 -5.44,12.11 -9.08,22.63 -12.52,36.95 -6.83,28.42 -7.35,56 -0.67,84.39 8.94,37.93 25.48,68.79 52.55,95.86 29.94,29.93 78.24,57.94 136.84,57.94z"/>
  <path class="fil3 str0" d="M3419.22 5210.12c6.16,0 34.15,-28.28 42.48,-34.35 104.37,-76.01 239.77,-77.55 343.97,-1.32 16.18,11.83 37.41,35.67 44.34,35.67 14.16,0 35.71,-16.42 32.88,-36.45 -2.51,-17.81 -38.07,-85.85 -47.85,-103.52 -109.28,-197.52 -291.57,-197.52 -400.85,0 -9.78,17.67 -45.34,85.71 -47.86,103.52 -2.83,20.03 18.73,36.45 32.89,36.45z"/>
  <path class="fil1" d="M6689.86 2789.28c256.87,376.87 436.96,858.13 496.29,1465.96 197.45,2022.93 -1368.88,3478.17 -2989.64,3446.77 -1620.75,-31.41 -2844.44,-1286.64 -2876.93,-3121.12 -8.6,-485.41 100.97,-926.15 290.05,-1311.32l206.58 156.91c-161.1,342.78 -253.78,732.19 -246.21,1159.52 29.72,1678.3 1149.23,2826.68 2632.01,2855.4 1482.78,28.73 2915.77,-1302.61 2735.12,-3153.33 -51.83,-531.04 -204.45,-956.43 -422.74,-1293.94l175.47 -204.85z"/>
 </g>
</svg>
