<?xml version="1.0" encoding="UTF-8"?>
<!DOCTYPE svg PUBLIC "-//W3C//DTD SVG 1.1//EN" "http://www.w3.org/Graphics/SVG/1.1/DTD/svg11.dtd">
<!-- Creator: CorelDRAW -->
<svg xmlns="http://www.w3.org/2000/svg" xml:space="preserve" width="168.856mm" height="196.697mm" version="1.1" style="shape-rendering:geometricPrecision; text-rendering:geometricPrecision; image-rendering:optimizeQuality; fill-rule:evenodd; clip-rule:evenodd"
viewBox="0 0 16284.39 18969.45"
 xmlns:xlink="http://www.w3.org/1999/xlink"
 xmlns:xodm="http://www.corel.com/coreldraw/odm/2003">
 <defs>
  <style type="text/css">
   <![CDATA[
    .fil1 {fill:white}
    .fil0 {fill:#453017}
   ]]>
  </style>
 </defs>
 <g id="Camada_x0020_1">
  <metadata id="CorelCorpID_0Corel-Layer"/>
  <path class="fil0" d="M11553.16 9064.15c1121.82,926.03 919.66,3234.45 393.37,3882.48 -654.22,805.53 -2076.06,1419.61 -3552.13,1562.28 -1616.36,156.23 -2970.59,-281.47 -3956.23,-1025.91 -872.56,-659.04 -1137.83,-1682.33 -749.38,-2727.94 131.32,-353.51 284.06,-598.28 572.89,-756.29 202.63,63.43 395.54,257.5 722.37,365.37 1459.53,481.71 4265.36,174.22 5814.75,-121.6 293.61,-56.05 637.07,-168.76 896.73,-206.22 69.35,-153.52 56.87,-24.3 22.28,-252.76 -14.88,-246.3 -149.72,-462.46 -209.65,-679.03 -80.41,-95.27 -39.72,125.61 -73.31,-124.47 216.69,20.9 57.29,-12.29 118.31,84.1zm3226.84 -4351.94c116.57,-473.24 15.51,-669.7 -27.61,-1085.25 -67.78,-89.08 11.22,71.32 -67.58,-103.75 -38.82,-86.25 -9.84,-26.86 -32.25,-136.31 -283.61,-551.49 -579.19,-897.31 -1142.7,-1158.37 -785.22,-363.77 -1240.76,-216.25 -2063.96,-121.35 -174.82,-221.67 -193.75,-470.89 -602.55,-901.25 -1641.11,-1727.67 -5084.44,-1553.39 -6475.49,230.64 -249.61,320.12 -374.12,586.32 -611.76,940.88 -1658.38,109.27 -3138.78,898.74 -3285.04,2494.3 -51.87,565.99 154.43,985.02 285.62,1255.94 187.71,294.02 433.01,535.22 750.98,709.83l0.58 -0.87c1003.92,522.62 1579.94,286.65 2146.33,392.09l63.14 561.92c74.69,125.18 65.9,196.07 42.73,368.75l-246.37 47.8c-1035.13,92.91 -2306.19,1641.29 -2374.04,3170.32 -19.6,441.41 89.16,1305.78 290.78,1617.56l1814.31 81.22c310.02,8.09 290.22,14.83 452.51,175.6 943.84,934.88 2275.77,1492.77 3596.3,1590.52 739.29,54.72 1454.07,-19.48 2136.53,-185.83 1194.39,-291.14 2518.95,-957.81 2977.73,-1823.58 652.69,-20.55 2319.69,156.94 2598.68,7.83 -36.8,-523.75 509.62,-1960.29 -604.62,-3398.97 -490.18,-632.91 -1524.11,-1446.98 -2640.97,-1650.74 52.64,-2029.12 97.29,-1157.73 1422.85,-1565.18 753.07,-231.47 1401.03,-722.78 1595.85,-1513.75zm-3874.22 -2605.39c155.74,223.07 180.67,791.48 106.17,1074.87 -85.7,325.94 -288.21,568.55 -517.92,721.82l1.85 48.98c339.26,-66 577.28,-270.63 711.75,-482.29 212.01,-333.69 190.61,-487.76 243.74,-926.27 165.95,-80.08 308.5,-98.14 485.87,-76.79 283.61,-195.06 1933.45,-124.78 2295.74,1221.22 316.24,1174.92 -381.19,1928.81 -1251.37,2187.56 -883.44,262.69 -2288.27,-23.57 -3241.3,-101.93 -1821.02,-149.74 -1856.5,7.68 -3294,328.03l-117.61 80.61 -0.41 53.85c443.62,-61.17 790.11,-164.37 1279.87,-204.92 464.9,-38.49 924.88,-41.45 1401.59,-18.28 673.8,32.73 1924.98,173.23 2498.04,365.72l-145.24 1027.5c-480.55,373.82 -2710.52,545.38 -3505.11,585.49 -654.22,33.01 -1326.3,38.59 -1995.9,16.57l-1617.57 -111.39c-263.31,-75.83 -60.8,27.69 -180.52,-110.45 -66.45,-81.26 -194.36,-850.61 -258.87,-1048.36 -94.41,-289.44 -311.54,-757.34 -513.88,-885.39 61.67,187.29 229.3,803.72 245.54,965.18 -676.54,79.05 -1318.13,-18.85 -1785.08,-357.04 -2411.24,-2133.6 1432.02,-4549.99 4484.34,-3344.65l65.55 -19.83c-864.25,-547.98 -1042.4,-574.67 -2075.29,-742.94 645.44,-2409.51 6014.25,-2647.29 6680.02,-246.87z"/>
  <path class="fil1" d="M8588.29 15173.89c38.09,249.57 811.9,2433.5 915.95,2568.75 765.07,-99.1 1728.23,-588.87 2267.48,-941.26 408.14,-266.72 1491.58,-1190.57 1631.34,-1587.97l-1555.82 -1032.79c-163.32,-52.12 -394.01,135.36 -578.81,222.12 -864.65,405.96 -1655.31,619.62 -2680.13,771.15z"/>
  <path class="fil1" d="M6674.14 17732.07c169.77,-38.06 49.67,16.69 184.99,-76.12l617.62 -2298.97c-51.74,-165.15 19.42,-108.16 -254.15,-146.81 -41.31,-5.83 -100.29,-8.87 -140.24,-18.94 -107.55,-27.14 -33.73,-6.41 -92.89,-51.52 -607.09,57.9 -1731.27,-361.02 -2189.92,-611.44 -311.29,-169.97 -326.35,-47.28 -1008.88,215.52 -358.41,137.99 -712,296.94 -1046.4,405.6 291.62,859.58 2665.01,2482.68 3929.86,2582.68z"/>
  <path class="fil1" d="M4063.46 7786.72c119.72,138.14 -82.79,34.62 180.52,110.45l1617.57 111.39c669.6,22.02 1341.68,16.44 1995.9,-16.57 794.6,-40.11 3024.56,-211.67 3505.11,-585.49l145.24 -1027.5 -1308.21 460.54c-1408.4,357.78 -2662.53,659.42 -4142.98,810.34 -1088.99,111.01 -824.48,145.06 -1993.14,136.84zm162.31 -5433.03c137.56,33.91 792.07,153.56 955.67,184.06 417.68,-1315.1 2906.51,-1811.49 4438.15,-1233.98 1202.54,453.42 1085.73,572.46 1286.2,803.04 -282.14,-1159.8 -1800.98,-1753.03 -3393.49,-1687.33 -1866.01,81.41 -3054.95,971.21 -3286.52,1934.2zm-2653.55 2570.1c-9.09,-648.51 288.27,-982.35 604.16,-1258.76 548.61,-480.05 1046.47,-682.01 1343.36,-780.36 -2128.5,281.18 -3505.54,2318.36 -1768.57,3576.44 466.95,338.19 1108.54,436.09 1785.08,357.04 -394.27,-90.44 -1942.55,-364.82 -1964.02,-1894.36zm1512.4 149.17l982.9 -207.07c1062.53,-206.31 2201.94,-287.32 3301.79,-288.24 700.09,-0.6 1495.38,-98.49 1955.72,-417.41 478.93,-331.78 846.28,-936.72 519,-1696.48 -317.35,436.97 -114.15,1534.98 -3007.75,1613.37 -1008.65,27.33 -3514.59,195.04 -3751.66,995.83zm3361.71 1029.07c1437.49,-320.35 1472.97,-477.77 3294,-328.03 953.03,78.36 2357.87,364.62 3241.3,101.93 870.19,-258.75 1567.61,-1012.65 1251.37,-2187.56 -362.29,-1346 -2012.13,-1416.28 -2295.74,-1221.22 561.62,132.05 822.03,-108.01 1257.56,264.59 691.39,591.48 844.47,2527.1 -1231.79,2655.67 -723.11,44.79 -1739.72,-165.34 -2976.52,-4.98 -462.73,60 -2203.61,288.17 -2540.19,719.59z"/>
  <path class="fil0" d="M6782.6 13039.09l2142.75 -0.77c-33.46,182.14 -207.91,351.62 -398.84,374.53 -143.92,17.25 -450.73,-81.46 -672.68,-81.44 -274.28,0.04 -942.6,295.56 -1071.23,-292.32zm-136.38 46.26c169.05,789.41 2249.7,786.1 2395.57,10.97l22.71 -162.46 -2418.48 5.87 0.19 145.61z"/>
  <path class="fil0" d="M9233.83 11718.39c77.05,547.31 768.12,500.92 704.93,-189.12 -58.15,-634.9 -802.54,-504.44 -704.93,189.12z"/>
  <path class="fil1" d="M3514.1 8207.2l246.37 -47.8c23.16,-172.68 31.96,-243.57 -42.73,-368.75l10.66 287.34c-134.86,88.89 40.11,-25.56 -100.82,51.15 -94.23,51.31 -61.19,16.26 -113.47,78.05z"/>
  <path class="fil0" d="M502.33 13204.54c-14.2,-41.72 -30.52,-103.36 -50.2,-147.97 -82.05,-185.96 -32.2,-67.56 -82.3,-132.42 9.79,46.95 13.63,113.59 38.65,167.44 86.21,185.49 3.4,37.98 93.85,112.95z"/>
  <path class="fil1" d="M11508.17 9104.53l45 -40.38c-61.03,-96.38 98.38,-63.2 -118.31,-84.1 33.59,250.09 -7.1,29.2 73.31,124.47z"/>
  <path class="fil1" d="M11695.54 10036.32l121.68 -102.94 -99.4 -149.82c34.59,228.46 47.07,99.24 -22.28,252.76z"/>
  <path class="fil1" d="M14752.39 3626.96c-23.02,-106.13 20.04,-15.05 -33.25,-134 -43.54,-97.17 -36.43,-62.97 -66.57,-106.05 22.41,109.45 -6.57,50.06 32.25,136.31 78.79,175.07 -0.2,14.67 67.58,103.75z"/>
  <path class="fil1" d="M6301.06 3096.63l-65.55 19.83c52.01,52.39 -8.83,56.92 155.97,97.11l-90.42 -116.93z"/>
  <path class="fil1" d="M10495.89 3952.5l-1.85 -48.98 -65.26 76.08c5.37,-0.74 28.2,-6.12 33.58,-7.16 6.11,-1.18 21.53,-14.93 33.53,-19.94z"/>
  <path class="fil0" d="M9499.05 12178.59c293.46,0 539.08,-234.28 539.08,-547.64 0,-565.66 -792.74,-735.52 -1026.75,-213.85 -15.03,33.52 -25.11,62.65 -34.63,102.27 -18.9,78.65 -20.37,154.98 -1.86,233.55 24.74,104.97 70.53,190.39 145.43,265.3 82.85,82.85 216.53,160.37 378.73,160.37z"/>
  <path class="fil0" d="M5812.28 12071.49c17.07,0 94.52,-78.25 117.58,-95.05 288.85,-210.38 663.58,-214.63 951.98,-3.66 44.78,32.76 103.52,98.72 122.71,98.72 39.17,0 98.84,-45.42 91.01,-100.87 -6.96,-49.28 -105.39,-237.61 -132.45,-286.51 -302.44,-546.64 -806.95,-546.64 -1109.39,0 -27.05,48.9 -125.48,237.23 -132.44,286.51 -7.83,55.44 51.84,100.87 91.01,100.87z"/>
  <path class="fil0" d="M14864.11 5371.56c710.92,1043.04 1209.34,2374.97 1373.53,4057.22 546.48,5598.68 -3788.51,9626.18 -8274.12,9539.28 -4485.61,-86.91 -7872.29,-3560.91 -7962.21,-8638 -23.8,-1343.43 279.45,-2563.21 802.75,-3629.24l571.72 434.29c-445.85,948.68 -702.35,2026.39 -681.4,3209.07 82.25,4644.88 3180.62,7823.14 7284.36,7902.64 4103.74,79.5 8069.69,-3605.14 7569.73,-8727.19 -143.45,-1469.7 -565.83,-2647 -1169.99,-3581.12l485.62 -566.95z"/>
 </g>
</svg>
