<?xml version="1.0" encoding="UTF-8"?>
<!DOCTYPE svg PUBLIC "-//W3C//DTD SVG 1.1//EN" "http://www.w3.org/Graphics/SVG/1.1/DTD/svg11.dtd">
<!-- Creator: CorelDRAW -->
<svg xmlns="http://www.w3.org/2000/svg" xml:space="preserve" width="180.622mm" height="180.622mm" version="1.1" style="shape-rendering:geometricPrecision; text-rendering:geometricPrecision; image-rendering:optimizeQuality; fill-rule:evenodd; clip-rule:evenodd"
viewBox="0 0 18062.22 18062.22"
 xmlns:xlink="http://www.w3.org/1999/xlink"
 xmlns:xodm="http://www.corel.com/coreldraw/odm/2003">
 <defs>
  <style type="text/css">
   <![CDATA[
    .fil0 {fill:#453017}
   ]]>
  </style>
 </defs>
 <g id="Camada_x0020_1">
  <metadata id="CorelCorpID_0Corel-Layer"/>
  <path class="fil0" d="M917.22 13335c0,1287.04 2045.19,2011.87 3056.65,2305.57 3218.85,934.64 9167.81,919.67 11995.97,-764.34 478.72,-285.05 1175.16,-811.84 1175.16,-1541.23 246.9,180.9 371.45,785.12 244.08,1196.58 -223.19,720.99 -990.91,1233.37 -1631.5,1578.78 -1129.33,608.94 -3171.11,1103.36 -4434.35,1210.09 -756.75,63.93 -1527.93,142.51 -2292.12,142.51 -602.43,0 -1653.03,-88.65 -2258.77,-140.58 -1509.04,-129.36 -5490.91,-953.61 -6090.42,-2764.3 -141.64,-427.76 -13.23,-1040.99 235.3,-1223.08zm10335.05 -13335l336.33 0c294.7,19.34 589.05,89.46 864.33,211.79 843.07,374.66 411.3,775.99 176.51,775.99 -147.93,0 -274.1,-118.94 -387,-177.44 -529.06,-274.13 -1298.85,-260.93 -1765.31,71.23 -502.37,357.74 -490.09,504.59 -705.19,952.87 288.09,0 719.08,-147.34 1209.32,342.91 70.94,70.93 88.5,83.15 146.44,171.06 40.29,61.12 87.69,163.78 122.81,194.69 107.92,94.99 1323.12,193.06 2342.89,796.83 774.37,458.48 779.98,779.61 996.71,1543.29 413.46,1456.93 1031.84,3321.78 1492.07,4822.65l596.74 1907.98c244.32,884.62 195.37,397.43 794.5,1110.51 417.78,497.24 588.8,835.78 588.8,1527.86 0,1478.77 -2035.56,2496.85 -3241.07,2932.54 -2064.67,746.2 -4061.76,877.46 -6283.93,877.46 -2205.19,0 -4989.38,-495.85 -6881.19,-1620.75 -484.66,-288.19 -905.14,-634.27 -1243.17,-1085.17 -245.8,-327.88 -385.48,-694.76 -412.86,-1068.75l0 -273.81c22.13,-300.58 117.2,-600.76 288.46,-884.17 84.2,-139.33 142.3,-230.02 249.77,-349.96 96.93,-108.18 155.26,-207.94 267.75,-296.69 391.66,-309.01 391.98,-284.69 513.01,-651.15 448.39,-1357.72 936.08,-3015.36 1357.64,-4392.64l828.77 -2663.73c56.29,-170.72 81.39,-277.57 120.28,-444.16 298.43,-1278.32 2380.17,-1563.12 3359.32,-1791.24 55,-114.62 80.08,-237.03 140,-353.89 418.69,-816.63 1200.02,-1095.37 2047.22,-528.05 48.48,-101.03 80.06,-213.7 130.26,-328.36 105.81,-241.7 229.83,-375.35 368.41,-548.81 380.44,-476.19 965.86,-740.29 1581.38,-780.89zm-8041.99 10795c0,434 33.89,825.69 252.58,1158.53 454.98,692.46 1399.8,678.06 1839.45,-442.33 132.14,-336.75 198.67,-759.35 421.17,-1025.22 270.64,-323.41 1080.72,-205.95 657.82,1045.88 -219.32,649.21 -704.13,1599.81 -76,2306.45 469.85,528.56 1189.75,473.21 1759.22,47.05 954.36,-714.19 375.68,-2490.64 896.03,-2490.64 365.64,0 508.82,293.91 596.12,568.05 189.22,594.23 145.23,1189.29 646.39,1681.95 816.46,802.6 2179.44,139.01 2179.44,-838.89 0,-998.48 -529.17,-1379.57 -529.17,-2046.11 0,-202.63 161.46,-493.89 317.5,-493.89 487.44,0 657.78,376.33 1007.65,826.8 967.17,1245.23 1990.96,423.91 1990.96,-191.8 0,-958.33 -458.61,-1179.52 -458.61,-1658.05 0,-283.71 156.51,-581.06 388.06,-635 89.12,382.54 242.36,784.27 357.26,1159.68l722.65 2346.51c411.11,1235.36 542.04,1279.49 -64.95,1883.21 -502.77,500.06 -1672.91,889.44 -2370.4,1086.83 -1814.22,513.43 -3461.55,544.04 -5347.34,544.04 -1737.71,0 -5063.16,-457.64 -6410.31,-1597.74 -647.07,-547.62 -476.44,-769.98 -270.46,-1378.86 77.89,-230.27 159.21,-488.84 217.47,-699.75l426.43 -1372.74c153.44,-454.49 285.05,-925.35 423.22,-1375.94l326.36 -1049.48c34.57,-102.14 90.89,-230.19 101.46,-357.15 906.63,607.11 0,2083.3 0,2998.61zm211.66 -3633.61l564.45 -1799.17c124.28,33.19 206.08,169.59 456.15,319.96 888.65,534.35 2038.41,740.71 3081.26,869.85 1675.01,207.42 4950.58,42.11 6305.6,-1012.91 108.26,-84.29 114.55,-107.12 246.43,-176.9 85.55,178.3 141.58,446.24 207.06,639.61l407.55 1321.06c62.36,219.86 177.92,458.5 196.78,685.16 -250.37,58.33 -496.36,334.76 -621.42,542.75 -159.85,265.87 -204.09,572.44 -145.41,929.43 74.45,452.86 468.93,966.07 435.34,1303.52 -16.28,163.57 -107.02,328.75 -268.23,328.75 -720.95,0 -946.31,-1481.67 -2046.11,-1481.67 -618.49,0 -1023.06,649.94 -1023.06,1093.61 0,889.4 736.33,1592.88 505.22,2233.74 -152.13,421.84 -761.59,564.79 -1097.77,228.54 -524.91,-525.03 -175.01,-1813.39 -1158.1,-2299.13 -467.56,-231.02 -975.44,-103.68 -1199.28,273.59 -170.7,287.7 -169.03,557.15 -189.72,974.44 -15.51,312.71 -71.64,728.01 -175.91,952.98 -332.3,716.94 -1270.55,617.87 -1270.55,-35.82 0,-928.47 493.89,-1230.24 493.89,-2151.95 0,-1121.83 -1396.69,-1867.57 -2140.7,-376.81 -298.16,597.39 -229.42,1258.76 -787.35,1258.76 -211.97,0 -388.06,-594.5 -388.06,-846.67 0,-892.14 1011.05,-2518.05 -78.59,-3519.74 -96.98,-89.14 -242.73,-163.9 -309.47,-254.98zm7444.63 -2569.25c243.79,-371.62 492.87,-735.9 492.87,-1346.58 475.33,0 1621.6,403.16 2051.53,700.13 1258.49,869.27 -667.28,1513.54 -1373.79,1706.21 -1941.34,529.41 -5849.88,576.32 -7507.6,-656.48 -1095.53,-814.71 1043.61,-1503 1552.34,-1629.89 152.59,-38.06 242.11,-63.57 395.08,-98.81 125.39,-28.88 355.01,-52.17 437.44,-91.72 0,286.63 72.06,646.77 155.39,867.67 117.96,312.73 319.97,615.14 338.5,684.55 -198.89,105.24 -246.94,116.67 -246.94,317.5 0,338.31 377.68,315.53 675.4,347.65 766.49,82.72 1729.33,34.54 2462.52,-67.22 222.13,-30.83 437.38,-68.21 663.49,-112.62 331.95,-65.21 467.2,-73.71 467.2,-414.75 0,-90.44 -182.83,-263.74 -282.22,-246.95l-281.21 41.31zm-1694.35 205.64c-947.17,0 -797.84,77.48 -1085.79,-254.77 -1246.86,-1438.69 -93.97,-3284.21 813.22,-2294.89 125.89,137.29 217.26,432.99 448.96,432.99 91.41,0 850.62,-517.98 1236.25,-36.8 449.92,561.39 -12.07,1553.47 -734.5,2020.22 -173.15,111.87 -404.5,133.25 -678.14,133.25z"/>
 </g>
</svg>
