<?xml version="1.0" encoding="UTF-8"?>
<!DOCTYPE svg PUBLIC "-//W3C//DTD SVG 1.1//EN" "http://www.w3.org/Graphics/SVG/1.1/DTD/svg11.dtd">
<!-- Creator: CorelDRAW -->
<svg xmlns="http://www.w3.org/2000/svg" xml:space="preserve" width="160.2mm" height="160.2mm" version="1.1" style="shape-rendering:geometricPrecision; text-rendering:geometricPrecision; image-rendering:optimizeQuality; fill-rule:evenodd; clip-rule:evenodd"
viewBox="0 0 18194.63 18194.63"
 xmlns:xlink="http://www.w3.org/1999/xlink"
 xmlns:xodm="http://www.corel.com/coreldraw/odm/2003">
 <defs>
  <style type="text/css">
   <![CDATA[
    .str0 {stroke:#373535;stroke-width:22.71;stroke-miterlimit:22.9256}
    .fil0 {fill:#453017}
   ]]>
  </style>
 </defs>
 <g id="Camada_x0020_1">
  <metadata id="CorelCorpID_0Corel-Layer"/>
  <path class="fil0 str0" d="M1714.97 11.36l14764.68 0c936.99,0 1703.62,766.64 1703.62,1703.63l0 14764.67c0,936.99 -766.63,1703.62 -1703.62,1703.62l-14764.68 0c-936.99,0 -1703.62,-766.63 -1703.62,-1703.62l0 -14764.67c0,-936.99 766.63,-1703.63 1703.62,-1703.63zm8019.71 5017.26l0 1562.43 -2178.46 0 -3.96 2524.51 2182.58 0 -0.16 7572.58c692.21,0 2682.36,29.1 3231.91,-10.6l-0.33 -7561.98 2357.86 0 -19.88 -2524.51 -2324.02 0c0.43,-1735.3 60.56,-1522.22 2323.86,-1522.22l0.16 -3085.43c-1447.45,0 -3580.29,-223.3 -4608.13,761.95 -525.25,503.48 -961.44,1276.69 -961.44,2283.27z"/>
 </g>
</svg>
