<?xml version="1.0" encoding="UTF-8"?>
<!DOCTYPE svg PUBLIC "-//W3C//DTD SVG 1.1//EN" "http://www.w3.org/Graphics/SVG/1.1/DTD/svg11.dtd">
<!-- Creator: CorelDRAW -->
<svg xmlns="http://www.w3.org/2000/svg" xml:space="preserve" width="180.622mm" height="180.622mm" version="1.1" style="shape-rendering:geometricPrecision; text-rendering:geometricPrecision; image-rendering:optimizeQuality; fill-rule:evenodd; clip-rule:evenodd"
viewBox="0 0 18062.22 18062.22"
 xmlns:xlink="http://www.w3.org/1999/xlink"
 xmlns:xodm="http://www.corel.com/coreldraw/odm/2003">
 <defs>
  <style type="text/css">
   <![CDATA[
    .fil0 {fill:#453017}
   ]]>
  </style>
 </defs>
 <g id="Camada_x0020_1">
  <metadata id="CorelCorpID_0Corel-Layer"/>
  <path class="fil0" d="M14040.55 10477.5l-3704.16 0 0 3774.72c0,1678.06 -2363.61,1583.1 -2363.61,105.83l0 -3880.55 -3704.17 0c-741.75,0 -1208.42,-360.93 -1323.03,-1078.3 -56.13,-351.29 120.46,-684.32 278.29,-883.66 131.57,-166.17 519.22,-401.65 797.8,-401.65l3951.11 0 0 -3880.56c0,-291.82 156.64,-632.12 344.34,-819.82 686.48,-686.49 2019.27,-300.31 2019.27,925.66l0 3774.72 3880.55 0c341.94,0 657.83,182.99 830.82,368.62 605.83,650.1 354.38,1994.99 -1007.21,1994.99zm-5396.06 -10477.5l885.89 0c1139.3,56.08 2270.64,329.19 3322.95,834.45 1945.49,934.11 3474.44,2432.65 4385.91,4398.25 601.09,1296.23 822.98,2413.29 822.98,4045.35 0,1793.52 -697.67,3647.01 -1643.1,4953.84 -321.89,444.94 -612.62,812.02 -993.91,1193.32 -715.84,715.83 -1616.45,1359.95 -2595.69,1814.03 -1296.23,601.09 -2413.29,822.98 -4045.35,822.98 -3393.12,0 -6562.03,-2215.39 -7961.19,-5232.7 -601.09,-1296.23 -822.98,-2413.29 -822.98,-4045.35 0,-2333.93 1117.62,-4627.76 2637.01,-6147.16 1613.37,-1613.37 3790.65,-2529.16 6007.48,-2637.01z"/>
 </g>
</svg>
