<?xml version="1.0" encoding="UTF-8"?>
<!DOCTYPE svg PUBLIC "-//W3C//DTD SVG 1.1//EN" "http://www.w3.org/Graphics/SVG/1.1/DTD/svg11.dtd">
<!-- Creator: CorelDRAW -->
<svg xmlns="http://www.w3.org/2000/svg" xml:space="preserve" width="117.869mm" height="126.959mm" version="1.1" style="shape-rendering:geometricPrecision; text-rendering:geometricPrecision; image-rendering:optimizeQuality; fill-rule:evenodd; clip-rule:evenodd"
viewBox="0 0 12080.37 13011.96"
 xmlns:xlink="http://www.w3.org/1999/xlink"
 xmlns:xodm="http://www.corel.com/coreldraw/odm/2003">
 <defs>
  <style type="text/css">
   <![CDATA[
    .fil0 {fill:#453017}
   ]]>
  </style>
 </defs>
 <g id="Camada_x0020_1">
  <metadata id="CorelCorpID_0Corel-Layer"/>
  <g id="_105553136340768">
   <path class="fil0" d="M10593.74 7986.26l-144.62 0 0 -2024.75c297.55,0 580.38,-3.44 822.19,262.5 375.7,413.19 387.27,1762.25 -677.57,1762.25zm-10015.24 -1120.84l0 -1916.27c0,-196.86 128.54,-325.41 325.41,-325.41l8569 0c215.64,0 361.56,73.74 361.56,289.25l0 2205.52c0,877.25 -368.9,1746.17 -831.29,2386.61 -752.84,1042.73 -2049.77,1771.35 -3652.07,1771.35 -1376.77,0 -2532.37,-308.38 -3480.58,-1255.87 -697.99,-697.44 -1292.02,-1771.52 -1292.02,-3155.18zm-578.5 -2024.75l0 2313.99c0,1746.84 1279.87,3563.46 2784.46,4229.83 1214.68,537.97 1692.72,470.47 2964.36,470.47 1064.57,0 2305.76,-564.13 3045.86,-1256.71 99.48,-93.1 159.65,-109.12 253.63,-216.4l440.12 -536.09c159.29,-211.07 241.42,-374.87 375.8,-600.42 75.4,-126.57 261.69,-534.9 295.63,-680.59 640.17,0 977.8,19.31 1347.04,-279.97 149.58,-121.25 281.31,-241.89 377.45,-417.98 241.45,-442.28 191.78,-692.7 191.78,-1182.16 0,-392.17 -237.12,-730.81 -441.85,-932.08 -328.63,-323.09 -681.93,-405.7 -1185.17,-405.7l0 -397.71c0,-451.85 -355.65,-903.91 -795.43,-903.91l-8858.25 0c-406.79,0 -795.43,388.64 -795.43,795.43z"/>
   <path class="fil0" d="M686.97 12722.71c0,174.89 114.36,289.25 289.25,289.25l8677.47 0c388.11,0 388.11,-578.49 0,-578.49l-8677.47 0c-174.89,0 -289.25,114.36 -289.25,289.25z"/>
   <path class="fil0" d="M7375.85 863.51c0,726.98 470.03,614.99 470.03,1229.3 0,391.17 -361.56,248.63 -361.56,723.13 0,109.74 303.21,522.44 775.22,-164.84 603.93,-879.39 -269.04,-1413.72 -269.04,-1715.28 0,-537.12 216.94,-353.61 216.94,-650.81 0,-527.61 -831.59,-315.82 -831.59,578.5z"/>
   <path class="fil0" d="M2169.37 863.51c0,726.98 470.03,614.99 470.03,1229.3 0,391.17 -361.56,248.63 -361.56,723.13 0,109.74 303.21,522.44 775.22,-164.84 252.68,-367.93 269.06,-836.2 28.56,-1217.44 -191.73,-303.91 -297.6,-195.53 -297.6,-642.47 0,-259.88 216.94,-272.47 216.94,-506.19 0,-527.61 -831.59,-315.82 -831.59,578.5z"/>
   <path class="fil0" d="M4772.61 863.51c0,726.98 470.03,614.99 470.03,1229.3 0,391.17 -361.56,248.63 -361.56,723.13 0,109.74 303.21,522.44 775.22,-164.84 252.68,-367.93 269.06,-836.2 28.56,-1217.44 -191.73,-303.91 -297.6,-195.53 -297.6,-642.47 0,-259.88 216.94,-272.47 216.94,-506.19 0,-527.61 -831.59,-315.82 -831.59,578.5z"/>
   <path class="fil0" d="M1554.72 7913.94c0,471.97 789.3,1522.75 1270.52,1911.22 129.82,104.8 284.03,294.31 464.97,294.31 219.8,0 500.97,-286.11 77.74,-620.08 -216.86,-171.13 -561.4,-515.29 -718.7,-727.54 -505.01,-681.4 -470.32,-1147.15 -805.28,-1147.15 -174.89,0 -289.25,114.36 -289.25,289.25z"/>
  </g>
 </g>
</svg>
