<?xml version="1.0" encoding="UTF-8"?>
<!DOCTYPE svg PUBLIC "-//W3C//DTD SVG 1.1//EN" "http://www.w3.org/Graphics/SVG/1.1/DTD/svg11.dtd">
<!-- Creator: CorelDRAW -->
<svg xmlns="http://www.w3.org/2000/svg" xml:space="preserve" width="33.9334mm" height="39.5284mm" version="1.1" style="shape-rendering:geometricPrecision; text-rendering:geometricPrecision; image-rendering:optimizeQuality; fill-rule:evenodd; clip-rule:evenodd"
viewBox="0 0 3296.71 3840.28"
 xmlns:xlink="http://www.w3.org/1999/xlink"
 xmlns:xodm="http://www.corel.com/coreldraw/odm/2003">
 <defs>
  <style type="text/css">
   <![CDATA[
    .str0 {stroke:#2B3467;stroke-width:7.4;stroke-miterlimit:22.9256}
    .fil0 {fill:#453017}
    .fil4 {fill:#9A927E}
    .fil5 {fill:#9B9689}
    .fil3 {fill:#A49B8C}
    .fil6 {fill:#A79D93}
    .fil7 {fill:#ABA699}
    .fil2 {fill:#B4A898}
    .fil1 {fill:#FFB100}
   ]]>
  </style>
 </defs>
 <g id="Camada_x0020_1">
  <metadata id="CorelCorpID_0Corel-Layer"/>
  <path class="fil0" d="M2338.89 1835.01c227.11,187.47 186.18,654.8 79.64,785.98 -132.44,163.08 -420.28,287.4 -719.11,316.28 -327.22,31.62 -601.37,-56.98 -800.91,-207.69 -176.64,-133.42 -230.35,-340.58 -151.7,-552.25 26.58,-71.57 57.5,-121.12 115.98,-153.11 41.02,12.84 80.07,52.13 146.23,73.97 295.48,97.51 863.5,35.27 1177.17,-24.62 59.44,-11.35 128.97,-34.17 181.54,-41.75 14.04,-31.08 11.51,-4.93 4.51,-51.17 -3.01,-49.87 -30.31,-93.63 -42.44,-137.47 -16.28,-19.28 -8.04,25.43 -14.84,-25.2 43.86,4.24 11.6,-2.49 23.95,17.03zm653.26 -881.03c23.6,-95.81 3.14,-135.59 -5.6,-219.71 -13.72,-18.03 2.27,14.44 -13.68,-21 -7.86,-17.46 -1.99,-5.43 -6.53,-27.59 -57.42,-111.65 -117.25,-181.66 -231.33,-234.51 -158.97,-73.64 -251.19,-43.78 -417.84,-24.57 -35.38,-44.87 -39.22,-95.33 -121.97,-182.45 -332.24,-349.76 -1029.32,-314.47 -1310.94,46.69 -50.53,64.81 -75.74,118.7 -123.84,190.48 -335.73,22.12 -635.44,181.95 -665.05,504.96 -10.5,114.58 31.26,199.42 57.83,254.26 38.01,59.53 87.66,108.35 152.03,143.7l0.12 -0.17c203.23,105.81 319.85,58.03 434.51,79.38l12.79 113.76c15.12,25.34 13.34,39.69 8.65,74.65l-49.88 9.68c-209.56,18.81 -466.88,332.27 -480.61,641.81 -3.96,89.37 18.05,264.35 58.86,327.47l367.3 16.45c62.76,1.63 58.75,3 91.61,35.54 78.64,77.89 172.92,156.21 297.25,209.82 32.09,10.4 22.03,3.17 39.67,24.67 131.47,25.89 156.43,70.13 391.15,87.51 149.66,11.08 294.36,-3.94 432.52,-37.63 241.8,-58.94 509.95,-193.9 602.83,-369.17 132.13,-4.16 469.61,31.77 526.09,1.58 -7.45,-106.03 103.17,-396.85 -122.4,-688.1 -99.24,-128.13 -308.56,-292.93 -534.66,-334.18 10.66,-410.79 19.7,-234.38 288.06,-316.86 152.45,-46.87 283.63,-146.32 323.07,-306.45zm-784.32 -527.45c31.53,45.16 36.58,160.23 21.5,217.6 -17.35,65.99 -58.35,115.1 -104.86,146.13l0.38 9.92c68.68,-13.37 116.86,-54.79 144.09,-97.64 42.92,-67.56 38.59,-98.75 49.34,-187.51 33.61,-16.21 62.46,-19.87 98.37,-15.55 57.42,-39.48 391.42,-25.26 464.76,247.23 64.02,237.86 -77.17,390.48 -253.33,442.86 -178.85,53.18 -463.25,-4.77 -656.19,-20.64 -368.65,-30.31 -375.83,1.55 -666.84,66.41l-23.81 16.31 -0.09 10.9c89.81,-12.38 159.95,-33.27 259.11,-41.48 94.11,-7.79 187.23,-8.38 283.74,-3.7 136.41,6.63 389.71,35.07 505.72,74.04l-29.41 208.01c-97.28,75.67 -548.73,110.4 -709.59,118.53 -132.44,6.68 -268.5,7.81 -404.06,3.35l-327.47 -22.55c-53.31,-15.35 -12.31,5.61 -36.54,-22.35 -13.46,-16.46 -39.35,-172.2 -52.41,-212.24 -19.11,-58.59 -63.06,-153.32 -104.03,-179.25 12.48,37.92 46.42,162.71 49.71,195.4 -136.97,16 -266.85,-3.82 -361.39,-72.28 -488.14,-431.94 289.91,-921.12 907.84,-677.11l13.27 -4.01c-174.97,-110.93 -211.03,-116.34 -420.14,-150.4 130.66,-487.79 1217.55,-535.93 1352.33,-49.98z"/>
  <path class="fil0" d="M1738.67 3071.89c7.7,50.52 164.36,492.65 185.43,520.03 154.88,-20.06 349.87,-119.22 459.04,-190.55 82.63,-54 301.97,-241.03 330.26,-321.48l-314.97 -209.08c-33.06,-10.55 -79.77,27.41 -117.18,44.97 -175.05,82.18 -335.11,125.43 -542.58,156.11z"/>
  <path class="fil0" d="M1351.16 3589.78c34.37,-7.7 10.06,3.37 37.45,-15.41l125.03 -465.42c-10.47,-33.43 3.93,-21.9 -51.44,-29.72 -8.36,-1.19 -20.3,-1.8 -28.4,-3.84 -21.77,-5.5 -6.83,-1.3 -18.8,-10.43 -122.91,11.73 -350.49,-73.08 -443.35,-123.78 -63.01,-34.4 -66.06,-9.57 -204.23,43.63 -72.56,27.94 -144.15,60.12 -211.84,82.11 59.04,174.02 539.52,502.61 795.58,522.85z"/>
  <path class="fil1" d="M822.64 1576.4c24.23,27.96 -16.77,7 36.54,22.35l327.47 22.55c135.56,4.46 271.62,3.33 404.06,-3.35 160.86,-8.12 612.31,-42.85 709.59,-118.53l29.41 -208.01 -264.85 93.24c-285.12,72.43 -539.01,133.49 -838.72,164.04 -220.47,22.48 -166.92,29.37 -403.5,27.71zm32.86 -1099.89c27.84,6.86 160.35,31.09 193.47,37.26 84.56,-266.24 588.41,-366.72 898.49,-249.81 243.44,91.79 219.8,115.89 260.38,162.57 -57.12,-234.8 -364.59,-354.9 -686.99,-341.6 -377.77,16.49 -618.46,196.62 -665.34,391.57zm-537.19 520.3c-1.85,-131.28 58.36,-198.87 122.31,-254.83 111.06,-97.18 211.85,-138.06 271.96,-157.98 -430.91,56.92 -709.68,469.34 -358.05,724.04 94.54,68.46 224.42,88.28 361.39,72.28 -79.82,-18.31 -393.26,-73.86 -397.61,-383.51zm306.18 30.2l198.98 -41.92c215.11,-41.77 445.77,-58.17 668.44,-58.35 141.73,-0.13 302.73,-19.95 395.93,-84.5 96.95,-67.17 171.32,-189.64 105.06,-343.44 -64.24,88.46 -23.1,310.74 -608.9,326.62 -204.19,5.53 -711.51,39.48 -759.5,201.6zm680.56 208.33c291.01,-64.86 298.19,-96.72 666.84,-66.41 192.94,15.86 477.34,73.82 656.19,20.64 176.17,-52.38 317.36,-205 253.33,-442.86 -73.34,-272.49 -407.34,-286.72 -464.76,-247.23 113.7,26.74 166.41,-21.87 254.59,53.57 139.97,119.74 170.96,511.59 -249.37,537.62 -146.39,9.07 -352.2,-33.47 -602.58,-1.01 -93.68,12.15 -446.11,58.34 -514.25,145.69z"/>
  <path class="fil0" d="M1373.11 2639.71l433.79 -0.16c-6.77,36.87 -42.09,71.18 -80.74,75.82 -29.14,3.5 -91.25,-16.49 -136.18,-16.49 -55.52,0.01 -190.83,59.84 -216.86,-59.18zm-27.61 9.37c34.23,159.81 455.44,159.15 484.98,2.22l4.6 -32.9 -489.61 1.19 0.04 29.48z"/>
  <path class="fil0" d="M1869.35 2372.34c15.6,110.8 155.5,101.42 142.71,-38.28 -11.77,-128.53 -162.47,-102.13 -142.71,38.28z"/>
  <path class="fil2" d="M711.42 1661.52l49.88 -9.68c4.69,-34.97 6.47,-49.31 -8.65,-74.65l2.16 58.17c-27.31,18 8.11,-5.17 -20.41,10.36 -19.08,10.39 -12.39,3.29 -22.98,15.81z"/>
  <path class="fil3" d="M101.7 2673.21c-2.88,-8.45 -6.18,-20.93 -10.16,-29.96 -16.6,-37.65 -6.52,-13.67 -16.66,-26.8 1.98,9.5 2.76,23 7.83,33.9 17.45,37.55 0.69,7.68 18.99,22.87z"/>
  <path class="fil4" d="M2329.78 1843.18l9.1 -8.17c-12.35,-19.52 19.92,-12.79 -23.95,-17.03 6.8,50.64 -1.44,5.92 14.84,25.2z"/>
  <path class="fil5" d="M2367.71 2031.82l24.64 -20.84 -20.13 -30.33c7,46.24 9.53,20.09 -4.51,51.17z"/>
  <path class="fil6" d="M2986.55 734.27c-4.65,-21.48 4.06,-3.04 -6.73,-27.12 -8.81,-19.67 -7.37,-12.75 -13.48,-21.47 4.54,22.16 -1.33,10.13 6.53,27.59 15.95,35.44 -0.04,2.97 13.68,21z"/>
  <path class="fil6" d="M1275.63 626.91l-13.27 4.01c10.52,10.61 -1.8,11.53 31.57,19.66l-18.3 -23.68z"/>
  <path class="fil0" d="M1085.49 2917.27c-17.63,-21.5 -7.58,-14.27 -39.67,-24.67 6.34,5.24 7.87,8.02 18.97,14.64 7.63,4.56 13.5,6.67 20.69,10.03z"/>
  <path class="fil7" d="M2124.85 800.18l-0.38 -9.92 -13.21 15.4c1.09,-0.15 5.71,-1.23 6.8,-1.45 1.23,-0.23 4.36,-3.02 6.79,-4.03z"/>
  <path class="fil0" d="M1923.04 2465.51c59.41,0 109.13,-47.43 109.13,-110.87 0,-114.51 -160.49,-148.9 -207.86,-43.29 -3.04,6.79 -5.08,12.68 -7.01,20.7 -3.83,15.92 -4.12,31.38 -0.38,47.28 5.01,21.25 14.28,38.54 29.45,53.71 16.77,16.78 43.84,32.47 76.67,32.47z"/>
  <path class="fil0 str0" d="M1176.67 2443.82c3.46,0 19.14,-15.84 23.81,-19.24 58.48,-42.59 134.33,-43.46 192.72,-0.75 9.06,6.64 20.96,19.98 24.84,19.98 7.93,0 20,-9.19 18.42,-20.42 -1.41,-9.98 -21.33,-48.1 -26.81,-58 -61.23,-110.67 -163.36,-110.67 -224.59,0 -5.48,9.9 -25.41,48.02 -26.81,58 -1.58,11.23 10.49,20.42 18.42,20.42z"/>
  <path class="fil1" d="M3009.17 1087.46c143.92,211.16 244.82,480.8 278.07,821.37 110.63,1133.42 -766.97,1948.77 -1675.05,1931.18 -908.09,-17.59 -1593.71,-720.89 -1611.91,-1748.72 -4.82,-271.97 56.57,-518.91 162.52,-734.72l115.74 87.91c-90.25,192.06 -142.18,410.24 -137.95,649.67 16.65,940.33 643.91,1583.75 1474.69,1599.85 830.78,16.1 1633.67,-729.84 1532.45,-1766.78 -29.04,-297.54 -114.55,-535.87 -236.86,-724.98l98.31 -114.78z"/>
 </g>
</svg>
