<?xml version="1.0" encoding="UTF-8"?>
<!DOCTYPE svg PUBLIC "-//W3C//DTD SVG 1.1//EN" "http://www.w3.org/Graphics/SVG/1.1/DTD/svg11.dtd">
<!-- Creator: CorelDRAW -->
<svg xmlns="http://www.w3.org/2000/svg" xml:space="preserve" width="50mm" height="50mm" version="1.1" style="shape-rendering:geometricPrecision; text-rendering:geometricPrecision; image-rendering:optimizeQuality; fill-rule:evenodd; clip-rule:evenodd"
viewBox="0 0 4985.78 4985.78"
 xmlns:xlink="http://www.w3.org/1999/xlink"
 xmlns:xodm="http://www.corel.com/coreldraw/odm/2003">
 <defs>
  <style type="text/css">
   <![CDATA[
    .str0 {stroke:#2B3467;stroke-width:7.6;stroke-miterlimit:22.9256}
    .fil2 {fill:none}
    .fil0 {fill:white}
    .fil3 {fill:#453017}
    .fil6 {fill:#9A927E}
    .fil7 {fill:#9B9689}
    .fil5 {fill:#A49B8C}
    .fil8 {fill:#A79D93}
    .fil9 {fill:#ABA699}
    .fil4 {fill:#B4A898}
    .fil1 {fill:#FFB100}
   ]]>
  </style>
   <clipPath id="id0">
    <path d="M807.7 0l3370.39 0c444.23,0 807.7,363.46 807.7,807.7l0 3370.39c0,444.23 -363.46,807.7 -807.7,807.7l-3370.39 0c-444.23,0 -807.7,-363.46 -807.7,-807.7l0 -3370.39c0,-444.23 363.46,-807.7 807.7,-807.7z"/>
   </clipPath>
 </defs>
 <g id="Camada_x0020_1">
  <metadata id="CorelCorpID_0Corel-Layer"/>
  <path class="fil0" d="M807.7 0l3370.39 0c444.23,0 807.7,363.46 807.7,807.7l0 3370.39c0,444.23 -363.46,807.7 -807.7,807.7l-3370.39 0c-444.23,0 -807.7,-363.46 -807.7,-807.7l0 -3370.39c0,-444.23 363.46,-807.7 807.7,-807.7z"/>
  <g style="clip-path:url(#id0)">
   <g id="_105553136634240">
    <path id="_1" class="fil1" d="M702.98 -125.38l3584.84 0c472.5,0 859.08,386.58 859.08,859.08l0 3584.84c0,472.5 -386.58,859.08 -859.08,859.08l-3584.84 0c-472.5,0 -859.08,-386.58 -859.08,-859.08l0 -3584.84c0,-472.5 386.58,-859.08 859.08,-859.08zm259.45 383.81l3065.94 0c404.11,0 734.72,330.62 734.72,734.72l0 3065.94c0,404.11 -330.62,734.72 -734.72,734.72l-3065.94 0c-404.11,0 -734.72,-330.62 -734.72,-734.72l0 -3065.94c0,-404.11 330.62,-734.72 734.72,-734.72z"/>
   </g>
  </g>
  <path class="fil2" d="M807.7 0l3370.39 0c444.23,0 807.7,363.46 807.7,807.7l0 3370.39c0,444.23 -363.46,807.7 -807.7,807.7l-3370.39 0c-444.23,0 -807.7,-363.46 -807.7,-807.7l0 -3370.39c0,-444.23 363.46,-807.7 807.7,-807.7z"/>
  <g id="_105553136638048">
   <path class="fil3" d="M3159.16 2371.3c233.11,192.41 191.09,672.07 81.74,806.72 -135.93,167.38 -431.37,294.98 -738.08,324.62 -335.85,32.46 -617.24,-58.48 -822.05,-213.17 -181.3,-136.94 -236.43,-349.56 -155.71,-566.82 27.28,-73.46 59.02,-124.32 119.04,-157.15 42.1,13.18 82.19,53.51 150.09,75.92 303.28,100.08 886.28,36.2 1208.22,-25.27 61.01,-11.65 132.37,-35.07 186.33,-42.85 14.41,-31.9 11.82,-5.06 4.63,-52.52 -3.09,-51.18 -31.11,-96.1 -43.56,-141.1 -16.71,-19.79 -8.26,26.11 -15.24,-25.87 45.02,4.35 11.91,-2.55 24.58,17.48zm670.5 -904.27c24.22,-98.34 3.22,-139.16 -5.74,-225.51 -14.08,-18.51 2.33,14.82 -14.04,-21.56 -8.07,-17.92 -2.04,-5.57 -6.7,-28.32 -58.93,-114.59 -120.35,-186.45 -237.43,-240.69 -163.16,-75.58 -257.81,-44.93 -428.87,-25.22 -36.32,-46.06 -40.26,-97.84 -125.19,-187.27 -341.01,-358.99 -1056.48,-322.77 -1345.52,47.92 -51.86,66.52 -77.74,121.83 -127.11,195.5 -344.59,22.71 -652.2,186.75 -682.59,518.28 -10.78,117.6 32.09,204.68 59.35,260.97 39.01,61.1 89.97,111.21 156.04,147.49l0.12 -0.18c208.6,108.6 328.29,59.56 445.98,81.48l13.12 116.76c15.52,26.01 13.69,40.73 8.87,76.62l-51.19 9.93c-215.09,19.3 -479.19,341.04 -493.29,658.74 -4.07,91.73 18.53,271.33 60.42,336.11l376.99 16.88c64.42,1.68 60.3,3.08 94.02,36.48 80.71,79.94 177.48,160.33 305.09,215.36 32.94,10.67 22.62,3.25 40.71,25.32 134.94,26.57 160.55,71.98 401.47,89.82 153.61,11.37 302.13,-4.05 443.93,-38.62 248.18,-60.5 523.41,-199.01 618.74,-378.91 135.61,-4.27 482,32.61 539.97,1.63 -7.65,-108.83 105.89,-407.32 -125.63,-706.26 -101.86,-131.51 -316.7,-300.66 -548.76,-343 10.94,-421.63 20.22,-240.56 295.66,-325.22 156.47,-48.1 291.11,-150.18 331.59,-314.53zm-805.01 -541.37c32.36,46.35 37.54,164.46 22.07,223.34 -17.81,67.73 -59.89,118.13 -107.62,149.98l0.39 10.18c70.49,-13.72 119.95,-56.24 147.89,-100.21 44.05,-69.34 39.61,-101.35 50.65,-192.46 34.49,-16.64 64.11,-20.39 100.96,-15.96 58.93,-40.52 401.74,-25.93 477.02,253.76 65.71,244.13 -79.2,400.78 -260.02,454.54 -183.57,54.58 -475.47,-4.9 -673.5,-21.18 -378.38,-31.11 -385.75,1.6 -684.44,68.17l-24.44 16.74 -0.09 11.19c92.18,-12.7 164.17,-34.15 265.94,-42.58 96.59,-8 192.17,-8.61 291.23,-3.8 140.01,6.8 399.99,36 519.06,75.99l-30.18 213.5c-99.85,77.67 -563.2,113.32 -728.31,121.65 -135.93,6.86 -275.58,8.02 -414.72,3.44l-336.11 -23.14c-54.71,-15.76 -12.63,5.75 -37.5,-22.94 -13.81,-16.89 -40.38,-176.75 -53.8,-217.84 -19.61,-60.14 -64.73,-157.36 -106.78,-183.98 12.81,38.92 47.64,167 51.02,200.56 -140.58,16.42 -273.89,-3.92 -370.92,-74.19 -501.02,-443.34 297.56,-945.42 931.79,-694.98l13.62 -4.12c-179.59,-113.86 -216.6,-119.41 -431.22,-154.37 134.11,-500.66 1249.68,-550.07 1388.01,-51.29z"/>
   <path class="fil3" d="M2543.11 3640.82c7.91,51.85 168.7,505.65 190.32,533.75 158.97,-20.59 359.1,-122.36 471.15,-195.58 84.81,-55.42 309.94,-247.38 338.97,-329.96l-323.28 -214.6c-33.93,-10.83 -81.88,28.13 -120.27,46.16 -179.67,84.35 -343.95,128.74 -556.89,160.23z"/>
   <path class="fil3" d="M2145.37 4172.37c35.28,-7.91 10.32,3.46 38.44,-15.81l128.32 -477.7c-10.75,-34.31 4.04,-22.48 -52.8,-30.5 -8.59,-1.22 -20.84,-1.84 -29.15,-3.94 -22.35,-5.64 -7.01,-1.34 -19.29,-10.71 -126.15,12.04 -359.73,-75.01 -455.04,-127.05 -64.68,-35.31 -67.81,-9.82 -209.62,44.78 -74.48,28.68 -147.95,61.7 -217.43,84.28 60.6,178.61 553.75,515.87 816.57,536.65z"/>
   <path class="fil1" d="M1602.91 2105.86c24.87,28.7 -17.21,7.19 37.5,22.94l336.11 23.14c139.13,4.58 278.78,3.42 414.72,-3.44 165.11,-8.34 628.47,-43.98 728.31,-121.65l30.18 -213.5 -271.83 95.7c-292.65,74.34 -553.23,137.01 -860.84,168.37 -226.28,23.07 -171.32,30.14 -414.15,28.44zm33.72 -1128.91c28.58,7.04 164.58,31.91 198.57,38.24 86.79,-273.26 603.94,-376.4 922.19,-256.4 249.87,94.21 225.6,118.95 267.25,166.86 -58.62,-240.99 -374.21,-364.26 -705.12,-350.61 -387.73,16.92 -634.78,201.8 -682.89,401.9zm-551.37 534.03c-1.89,-134.75 59.9,-204.12 125.53,-261.55 113.99,-99.75 217.44,-141.71 279.13,-162.15 -442.28,58.42 -728.4,481.73 -367.49,743.14 97.03,70.27 230.34,90.61 370.92,74.19 -81.93,-18.8 -403.64,-75.8 -408.1,-393.63zm314.25 31l204.23 -43.03c220.78,-42.87 457.54,-59.7 686.07,-59.89 145.47,-0.13 310.71,-20.47 406.37,-86.73 99.51,-68.94 175.84,-194.64 107.83,-352.5 -65.93,90.79 -23.71,318.94 -624.97,335.23 -209.58,5.67 -730.28,40.52 -779.54,206.92zm698.52 213.83c298.69,-66.57 306.06,-99.28 684.44,-68.17 198.03,16.28 489.93,75.76 673.5,21.18 180.81,-53.77 325.73,-210.41 260.02,-454.54 -75.28,-279.68 -418.09,-294.28 -477.02,-253.76 116.7,27.44 170.8,-22.45 261.3,54.98 143.66,122.9 175.47,525.09 -255.95,551.81 -150.25,9.31 -361.49,-34.35 -618.48,-1.04 -96.16,12.47 -457.88,59.88 -527.81,149.53z"/>
   <path class="fil3" d="M2167.91 3197.23l445.23 -0.16c-6.95,37.84 -43.2,73.06 -82.87,77.82 -29.9,3.59 -93.65,-16.92 -139.77,-16.92 -56.99,0.01 -195.86,61.41 -222.59,-60.74zm-28.34 9.61c35.13,164.02 467.46,163.34 497.77,2.28l4.72 -33.76 -502.53 1.23 0.04 30.25z"/>
   <path class="fil3" d="M2677.23 2922.8c16.01,113.73 159.6,104.09 146.47,-39.29 -12.08,-131.92 -166.75,-104.82 -146.47,39.29z"/>
   <path class="fil4" d="M1488.75 2193.23l51.19 -9.93c4.82,-35.89 6.64,-50.62 -8.87,-76.62l2.21 59.7c-28.03,18.48 8.33,-5.3 -20.95,10.63 -19.58,10.66 -12.71,3.38 -23.58,16.22z"/>
   <path class="fil5" d="M862.95 3231.61c-2.95,-8.68 -6.34,-21.48 -10.43,-30.75 -17.04,-38.64 -6.69,-14.03 -17.1,-27.51 2.03,9.75 2.83,23.6 8.04,34.79 17.91,38.54 0.71,7.89 19.49,23.47z"/>
   <path class="fil6" d="M3149.82 2379.68l9.34 -8.39c-12.67,-20.03 20.44,-13.13 -24.58,-17.48 6.98,51.97 -1.48,6.07 15.24,25.87z"/>
   <path class="fil7" d="M3188.75 2573.3l25.29 -21.39 -20.66 -31.13c7.19,47.46 9.78,20.62 -4.63,52.52z"/>
   <path class="fil8" d="M3823.91 1241.52c-4.78,-22.05 4.17,-3.12 -6.91,-27.84 -9.04,-20.19 -7.57,-13.08 -13.83,-22.04 4.66,22.75 -1.37,10.4 6.7,28.32 16.37,36.38 -0.04,3.05 14.04,21.56z"/>
   <path class="fil8" d="M2067.85 1131.32l-13.62 4.12c10.8,10.89 -1.84,11.84 32.41,20.18l-18.79 -24.3z"/>
   <path class="fil3" d="M1872.7 3482.12c-18.1,-22.07 -7.78,-14.65 -40.71,-25.32 6.51,5.37 8.08,8.24 19.47,15.03 7.83,4.68 13.86,6.85 21.24,10.29z"/>
   <path class="fil9" d="M2939.48 1309.17l-0.39 -10.18 -13.56 15.8c1.12,-0.15 5.86,-1.27 6.98,-1.49 1.27,-0.24 4.48,-3.1 6.97,-4.14z"/>
   <path class="fil3" d="M2732.35 3018.43c60.98,0 112.01,-48.68 112.01,-113.8 0,-117.53 -164.72,-152.82 -213.34,-44.43 -3.12,6.97 -5.22,13.01 -7.2,21.25 -3.93,16.34 -4.23,32.21 -0.39,48.53 5.15,21.81 14.66,39.56 30.22,55.12 17.21,17.22 44.99,33.32 78.7,33.32z"/>
   <path class="fil3 str0" d="M1966.28 2996.17c3.55,0 19.64,-16.25 24.44,-19.74 60.02,-43.72 137.88,-44.6 197.81,-0.77 9.3,6.81 21.51,20.51 25.5,20.51 8.14,0 20.53,-9.43 18.91,-20.96 -1.45,-10.24 -21.9,-49.37 -27.52,-59.53 -62.84,-113.59 -167.67,-113.59 -230.51,0 -5.62,10.16 -26.08,49.29 -27.52,59.53 -1.63,11.53 10.77,20.96 18.91,20.96z"/>
   <path class="fil1" d="M3847.13 1604.03c147.72,216.73 251.28,493.48 285.41,843.04 113.55,1163.32 -787.2,2000.19 -1719.25,1982.13 -932.05,-18.06 -1635.75,-739.91 -1654.44,-1794.86 -4.95,-279.14 58.06,-532.6 166.8,-754.1l118.79 90.23c-92.64,197.13 -145.93,421.06 -141.59,666.81 17.09,965.14 660.9,1625.53 1513.59,1642.06 852.7,16.52 1676.77,-749.09 1572.88,-1813.39 -29.8,-305.39 -117.57,-550.01 -243.11,-744.11l100.9 -117.8z"/>
  </g>
 </g>
</svg>
