<?xml version="1.0" encoding="UTF-8"?>
<!DOCTYPE svg PUBLIC "-//W3C//DTD SVG 1.1//EN" "http://www.w3.org/Graphics/SVG/1.1/DTD/svg11.dtd">
<!-- Creator: CorelDRAW -->
<svg xmlns="http://www.w3.org/2000/svg" xml:space="preserve" width="174.978mm" height="175.019mm" version="1.1" style="shape-rendering:geometricPrecision; text-rendering:geometricPrecision; image-rendering:optimizeQuality; fill-rule:evenodd; clip-rule:evenodd"
viewBox="0 0 17497.78 17501.88"
 xmlns:xlink="http://www.w3.org/1999/xlink"
 xmlns:xodm="http://www.corel.com/coreldraw/odm/2003">
 <defs>
  <style type="text/css">
   <![CDATA[
    .fil0 {fill:#453017}
   ]]>
  </style>
 </defs>
 <g id="Camada_x0020_1">
  <metadata id="CorelCorpID_0Corel-Layer"/>
  <g id="_105553209967008">
   <path class="fil0" d="M564.45 14998.36c1247.6,660.15 1913.81,793.19 3401.75,1043.24 2858.64,480.4 6843.24,423.46 9570.63,5.25 1396.53,-214.13 2218.68,-425.27 3396.5,-1048.49 0,416.81 -63.93,520.46 -482.32,752.4 -1092.23,605.47 -2805.27,822.98 -4093.43,986.56l-3608.69 201.31 -2408.54 -96.18c-366.43,-49.64 -731.74,-40.35 -1169.64,-100.36 -1121.93,-153.76 -2140.03,-254.62 -3199.89,-610.11 -337.11,-113.07 -1034.91,-367.25 -1275.93,-629.07 -122.44,-133 -130.44,-263.09 -130.44,-504.55zm12982.22 458.61c123.47,-184.4 368.74,-541.78 423.33,-776.11 1008.95,0 1476.29,-267.61 2072.63,-890.71 83.7,-87.46 151.39,-147.03 185.15,-273.46 223.8,118.42 831.93,381.03 663.36,730.54 -115.17,238.79 -640.7,497.42 -923.36,596.97 -386.09,135.97 -755.55,260.09 -1157.73,359.21 -418.95,103.26 -846.03,156.32 -1263.38,253.56zm-11535.83 -458.61c-275.03,-22.89 -1180.32,-422.27 -1363.28,-683.81 -195.55,-279.55 67.69,-456.21 258.67,-597.19 154.73,-114.22 513.41,-294.45 716.55,-341.78l607.84 626.91c-134.61,495.72 -131.12,615.27 -219.78,995.87zm8149.16 -1270l0 211.66c0,647.53 603.57,1305.28 1411.11,1305.28l0 -564.44c-797.59,-66.38 -1099.05,-932.89 -592.63,-1439.31 138.45,-138.45 366.34,-254.03 627.91,-254.03 166.64,0 254.34,435.45 504.28,730.44 42.14,49.74 60.5,61.73 100.22,111.45l211.67 211.67c274.34,219.15 552.23,441.8 947.72,533.94 -79.9,342.95 -482.86,764.6 -763.87,929.47 -236.65,138.85 -403.7,117.52 -692.35,154.32 -268.74,34.25 -507.54,39.61 -786.12,59.47 -361.25,25.75 -813.97,-363.74 -1048.11,-604.48 -746.07,-767.12 -671.46,-2407.84 667.52,-3055.87 199.46,-96.54 552.68,-193.26 823.76,-199.3l0 564.45c-807.54,0 -1411.11,657.75 -1411.11,1305.28zm1975.56 -1587.5c0,-241.2 104.23,-621.98 187.69,-800.09 727.26,-1551.91 2848.46,-1551.91 3575.72,0 755.79,1612.79 -975.15,3343.73 -2587.94,2587.95 -701.98,-328.97 -1175.47,-1027.85 -1175.47,-1787.86zm-423.34 -846.67c-1148.04,0 -1858.2,426.83 -2406.44,1368.28 -250.33,429.89 -274.67,846.1 -274.67,1348.11 0,720.11 492.1,1425.03 881.95,1763.89 -356.95,0 -580.23,35.27 -917.23,35.27 -2338.83,0 -4528.31,-194.15 -6420.55,-635 20.68,-43.1 105.83,-585.87 105.83,-670.27 206.58,55.16 443.29,436.06 635,564.44 428.54,-286.96 858.06,-1002.71 1001.92,-1608.64 115.37,-485.89 86.9,-191.39 808.03,-497.24 909.92,-385.92 1547.71,-1131.15 1780.21,-2135.63 113.31,-489.56 361.06,-89.47 1278.77,-696.79 397.01,-262.73 160.72,-247.53 669.68,-247.53 689.18,0 1189.72,86.9 1750,225.56 391.15,96.8 1075.28,375.26 1389.73,585.83 -46.82,175.31 -232.5,386.28 -282.23,599.72zm-8396.11 2963.33l-396.49 -379.62c42.98,-137.79 140.44,-219.09 206.06,-375.26 71.81,-170.91 92.37,-264.38 140.63,-459.09 317.54,-1281.07 1234.29,-763.96 2016.69,-1546.36 786.04,-786.04 279.31,-1696.52 1518.02,-2009.75 166.62,-42.14 300.19,-71.61 462.23,-137.5 221.42,-90.05 258.14,-171.94 392.03,-207.69l396.49 379.62c-104.72,59.38 -98.06,62.34 -179.57,119.52l-600.02 281.92c-667.94,205.41 -765.73,105.87 -942.93,820.96 -44.15,178.17 -89.18,313.97 -150.56,449.16 -51.33,113.05 -150.78,293.87 -215.79,383.94 -51.16,70.88 -73.24,82.38 -131.13,151.08 -741.08,879.53 -1390.97,725 -1725.97,955.15 -391.78,269.18 -228.66,516.64 -566.07,1197.82l-223.62 376.1zm-811.39 -811.39c-59.9,-40.11 -423.33,-368.84 -423.33,-423.33 0,-279.46 185.92,-687.79 281.88,-882.28 250.54,-507.78 731.16,-905.46 1249.29,-1114.33 343.44,-138.45 615.93,-93.95 860.63,-338.81 394.67,-394.91 1,-563.65 782.86,-1580.76 128.89,-167.67 437.61,-414.16 646.53,-517.63 209.64,-103.81 620.55,-293.41 906.03,-293.41 54.49,0 383.22,363.43 423.34,423.33 -551.23,291.67 -1038.29,147.46 -1577.27,786.35 -567.89,673.14 -311.09,1454.89 -1102.71,1825.34 -127.14,59.5 -327.25,96.87 -467.34,132.39 -570.96,144.74 -1075.26,545.75 -1283.94,1079.67 -59.58,152.43 -82.4,309.46 -126.54,473.18 -44.14,163.73 -93.77,287.31 -169.43,430.29zm6526.39 -9207.49l0 -3351.39c0,-157.31 142.86,-317.5 282.22,-317.5 373.08,0 282.23,577.48 282.23,952.5 0,412.69 -54.24,2203.6 47.81,2456.91 288.22,715.39 1275.21,732.58 1587.17,24.74 122.96,-279 58.35,-2004.33 58.35,-2446.38 0,-380.4 -96.99,-987.77 282.22,-987.77 373.08,0 282.22,577.48 282.22,952.5 0,412.69 -54.24,2203.6 47.82,2456.91 288.22,715.39 1275.21,732.58 1587.17,24.74 122.95,-279 58.35,-2004.33 58.35,-2446.38 0,-380.4 -96.99,-987.77 282.22,-987.77 139.36,0 282.22,160.19 282.22,317.5l0 3351.39c0,1150.45 -936.21,1023.9 -1438.24,1489.81 -698.03,647.8 -537.31,1416.56 -537.31,2390.74 0,658.52 0,1317.04 0,1975.56 -207.1,-109.59 -878.54,-437.78 -1128.89,-458.62l1.45 -2753.11c-7.14,-719.67 -515.62,-1295.77 -1223.34,-1528.33 -450.53,-148.04 -753.67,-535.59 -753.67,-1116.05zm-5644.44 -1093.62c0,-321.71 74.97,-715.11 147.7,-981.18 318.68,-1165.85 1516.74,-2043.47 2695.7,-1333.05 448.32,270.14 803.39,791.33 952.56,1305.22 346.37,1193.2 102.34,2289.97 -771.05,3151.98 -243.68,240.5 -482.55,598.41 -486.42,1065.8 -4.39,528.33 1.51,1060.2 1.51,1589.01 -249.47,58.12 -675.35,353.61 -873.57,537.55 -96.02,89.11 -150.08,168.09 -255.32,238.56 0,-576.2 0,-1152.41 0,-1728.61 0,-772.05 41.8,-986.55 -288.46,-1475.43 -265.83,-393.5 -768.79,-616.16 -1010.22,-1600.33 -48.2,-196.48 -112.43,-545.48 -112.43,-769.52zm-564.45 -282.22c0,1322.51 222.55,1964.11 1085.52,2830.32 191.34,192.06 325.6,466.01 325.6,838.57l0 3104.44c0,142.62 -70.56,305.14 -95.63,433.55 -43.75,224.07 -49.11,224.01 -255.6,273.56 -341.44,81.93 -511.63,147.32 -801.62,291.99 -1360.39,678.68 -1470.75,2047.94 -1592.53,2146.92 -37.86,30.77 -325.14,135.17 -394.87,169.57 -317.6,156.65 -476.31,227.42 -735.12,464.33 -7.56,6.92 -29.65,26.42 -37.05,33.5l-35.45 35.11c-40.23,41.61 -90.37,99.36 -130.31,151.91 -85.4,112.38 -155.16,228.1 -155.16,409.29l0 1270c0,1228.52 3439.99,1796.6 4455.38,1929.89 2264.97,297.33 4517.33,300.61 6798.3,186.84 606.68,-30.26 2325.17,-249.02 2854.73,-355.55 857.12,-172.42 2145,-468.71 2835.78,-974.21 134,-98.06 222.49,-183.5 333.78,-301.23 82.39,-87.15 219.81,-300.04 219.81,-450.47l0 -1305.27c0,-463.99 -681.47,-951.7 -987.78,-1023.06 142.51,-611.69 141.11,-402.12 141.11,-1058.33 0,-555.33 -357.02,-1259.46 -730.59,-1633.03l-682.41 -481.75c-777.99,-404.55 -1805.12,-316.33 -2538.11,174.5 0,-623.24 0,-1246.48 0,-1869.72 0,-837.38 -157.02,-1876.08 674.46,-2183.04 308.45,-113.88 385.75,-127.19 645.78,-306.72 319.14,-220.35 655.32,-723.13 655.32,-1249.69l0 -3633.61c0,-796 -1246.33,-1141.02 -1634.99,-259.15 -122.95,278.99 -58.35,2004.33 -58.35,2446.38 0,380.4 96.99,987.77 -282.22,987.77 -373.07,0 -282.22,-577.48 -282.22,-952.5 0,-412.69 54.24,-2203.6 -47.81,-2456.91 -288.22,-715.39 -1275.22,-732.58 -1587.18,-24.74 -122.95,278.99 -58.34,2004.33 -58.34,2446.38 0,380.4 96.98,987.77 -282.23,987.77 -373.07,0 -282.22,-577.48 -282.22,-952.5 0,-412.69 54.24,-2203.6 -47.81,-2456.91 -365.97,-908.36 -1645.52,-574.72 -1645.52,234.41l0 3633.61c0,685.75 508.89,1288.97 1115.04,1495.52 854.86,291.29 860.51,707.46 860.51,1785.32 0,587.96 0,1175.92 0,1763.89 -670.17,-55.77 -494.89,-149.39 -1554.02,-139.32 -334.52,3.19 -247.59,-21.88 -642.02,-416.31 -218.29,-218.29 -1257.72,-1287.84 -1402.29,-1384.65 -207.76,139.12 1.7,76.86 -352.78,246.94 0,-379.69 -40.3,-1096.38 13,-1433.39 76.92,-486.28 313.69,-618.8 578.38,-903.29 97.77,-105.09 237.53,-297.26 315.27,-425.56 101.31,-167.18 170.59,-299.4 247.77,-493.06 585.91,-1470.19 159.15,-3451.61 -1120.14,-4187.31 -748.18,-430.26 -1548.46,-428.95 -2303.69,-12.63 -531.77,293.14 -943.32,885.29 -1163.14,1447.41 -111.97,286.31 -236.34,725.2 -236.34,1104.22z"/>
   <path class="fil0" d="M13264.45 12140.86c0,-709.5 893.02,-1137.91 1438.79,-592.14 779.22,779.22 -405.04,1963.49 -1184.26,1184.27 -114.43,-114.43 -254.53,-380.04 -254.53,-592.13zm-564.45 -105.84l0 211.67c0,650.79 654.48,1305.28 1305.28,1305.28l211.66 0c650.8,0 1305.28,-654.49 1305.28,-1305.28l0 -211.67c0,-650.79 -654.48,-1305.27 -1305.28,-1305.27l-211.66 0c-650.8,0 -1305.28,654.48 -1305.28,1305.27z"/>
   <polygon class="fil0" points="7902.22,13269.75 8466.67,13269.75 8466.67,12705.3 7902.22,12705.3 "/>
   <polygon class="fil0" points="5080,14680.86 5644.45,14680.86 5644.45,14116.41 5080,14116.41 "/>
   <polygon class="fil0" points="6208.89,13551.97 6773.33,13551.97 6773.33,12987.52 6208.89,12987.52 "/>
   <polygon class="fil0" points="7902.22,15245.3 8466.67,15245.3 8466.67,14680.86 7902.22,14680.86 "/>
   <polygon class="fil0" points="7337.78,11294.19 7902.22,11294.19 7902.22,10729.75 7337.78,10729.75 "/>
   <polygon class="fil0" points="8748.89,11576.41 9313.33,11576.41 9313.33,11011.97 8748.89,11011.97 "/>
   <polygon class="fil0" points="6208.89,15245.3 6773.33,15245.3 6773.33,14680.86 6208.89,14680.86 "/>
  </g>
 </g>
</svg>
